<svg width="142" height="120" viewBox="0 0 142 120" fill="none" xmlns="http://www.w3.org/2000/svg">
<path d="M33.1504 114.959C32.5971 115.95 31.6036 116.611 30.4986 116.942C28.1811 117.494 25.8617 116.06 25.1988 113.856L18.7939 90.3683C19.7874 90.1492 20.7809 89.8186 21.8859 89.4862L26.0827 104.704C26.1923 105.144 26.6342 105.475 27.1857 105.475C27.2972 105.475 27.4067 105.475 27.5182 105.475C28.0697 105.365 28.4021 104.704 28.2907 104.153L24.0938 88.8251C24.5358 88.7156 25.0892 88.4946 25.5293 88.385C26.0827 88.164 26.6342 88.0526 27.2972 87.8335L33.702 111.871C33.8115 112.862 33.702 114.077 33.1504 114.959Z" fill="#E1EBF4"/>
<path d="M130.77 70.7407L122.82 85.0749H106.917L98.967 70.7407L106.917 56.4065H122.82L130.77 70.7407Z" fill="#FEACA4"/>
<path d="M97.0902 11.1976L92.1209 20.0184H82.4032L77.4338 11.1976L82.4032 2.37683H92.1209L97.0902 11.1976Z" fill="#66D1DC"/>
<path d="M92.01 49.791L86.9311 58.6136H76.5505L71.4716 49.791L76.5505 40.9702H86.9311L92.01 49.791Z" fill="#FFDB80"/>
<path d="M85.1625 10.9773H86.2674V16.3812C86.2674 16.6022 86.3788 16.6022 86.5998 16.6022H88.1448C88.3658 16.6022 88.4754 16.4908 88.4754 16.3812V10.9773H89.5803C89.8013 10.9773 89.8013 10.8677 89.8013 10.7582V9.65512C89.8013 9.54556 89.6917 9.43414 89.5803 9.43414H88.4754V8.88261C88.4754 8.66162 88.4754 8.4425 88.4754 8.33108C88.4754 8.22151 88.5868 8.00053 88.5868 7.89097C88.6964 7.77955 88.8078 7.66998 88.9173 7.66998C89.0288 7.56042 89.2498 7.56042 89.3593 7.56042C89.4707 7.56042 89.5803 7.56042 89.6917 7.449C89.8013 7.449 89.8013 7.33943 89.8013 7.22987V6.12681C89.8013 6.01539 89.8013 5.90583 89.6917 5.90583C89.5803 5.90583 89.5803 5.79626 89.3593 5.79626C88.8078 5.79626 88.3658 5.90583 88.0353 6.01539C87.7029 6.12681 87.3723 6.3478 87.1513 6.67834C86.9304 7.00889 86.7094 7.22987 86.5998 7.56042C86.4884 7.89097 86.3788 8.22151 86.3788 8.66162V9.43414H85.2739C85.1625 9.43414 85.1625 9.43414 85.0529 9.54556C84.9434 9.65512 84.9434 9.65512 84.9434 9.76468V10.8677C84.9434 10.9773 84.9434 10.9773 85.0529 11.0887C85.1625 11.1983 85.0529 10.9773 85.1625 10.9773Z" fill="#2D4356"/>
<path d="M122.6 61.9225H107.139C106.587 61.9225 106.036 62.474 106.036 63.0255V78.4628C106.036 78.4628 106.036 78.4628 106.036 78.5724V78.682C106.145 79.2335 106.587 79.564 107.139 79.564H122.6C123.152 79.564 123.703 79.0144 123.703 78.4628V63.0255C123.703 62.474 123.152 61.9225 122.6 61.9225ZM109.349 77.3598L113.544 71.7368L116.416 77.3598H109.349ZM118.845 77.3598L117.74 75.2651L118.845 73.8315L120.723 77.2483L118.845 77.3598ZM121.495 73.941L120.06 71.2948C119.839 70.9642 119.508 70.7433 119.176 70.7433C118.845 70.7433 118.403 70.8547 118.182 71.1852L116.637 73.0589L114.648 69.2001C114.427 68.8695 114.097 68.6486 113.764 68.6486C113.434 68.6486 112.992 68.7581 112.771 69.0905L108.244 75.0441V64.1286H121.495V73.941Z" fill="#2D4356"/>
<path d="M121.495 64.1272V73.9396L120.059 71.2934C119.838 70.9628 119.508 70.7418 119.175 70.7418C118.845 70.7418 118.403 70.8533 118.182 71.1838L116.637 73.0575L114.648 69.1987C114.427 68.8681 114.096 68.6471 113.764 68.6471C113.433 68.6471 112.991 68.7567 112.77 69.0891L108.243 75.0427V64.1272H121.495Z" fill="#66D1DC"/>
<path d="M120.721 77.2479L118.843 77.3594L117.738 75.1532L118.843 73.8311L120.721 77.2479Z" fill="#17A0B0"/>
<path d="M116.415 77.3575H109.347L113.432 71.7345L116.415 77.3575Z" fill="#17A0B0"/>
<path d="M29.5043 108.987C29.5062 109.134 29.4802 109.275 29.4245 109.41C29.3706 109.546 29.2926 109.667 29.1905 109.771C29.0884 109.875 28.9695 109.956 28.834 110.014C28.7003 110.071 28.5591 110.101 28.4124 110.103C28.2657 110.105 28.1246 110.079 27.989 110.025C27.8535 109.969 27.7328 109.891 27.6288 109.789C27.5229 109.687 27.4431 109.568 27.3855 109.434C27.3279 109.301 27.2982 109.16 27.2964 109.013C27.2945 108.868 27.3205 108.727 27.3744 108.591C27.4301 108.454 27.5081 108.335 27.6102 108.229C27.7123 108.125 27.8312 108.043 27.9649 107.986C28.1004 107.928 28.2397 107.901 28.3864 107.899C28.5331 107.897 28.6743 107.923 28.8098 107.977C28.9472 108.031 29.0661 108.108 29.1719 108.212C29.2759 108.315 29.3576 108.432 29.4152 108.567C29.4728 108.701 29.5025 108.842 29.5043 108.987Z" fill="#2D4356"/>
<path d="M30.4971 112.847C30.499 112.991 30.473 113.132 30.4173 113.268C30.3634 113.404 30.2854 113.524 30.1833 113.63C30.0812 113.734 29.9623 113.816 29.8268 113.873C29.6931 113.929 29.5519 113.959 29.4052 113.961C29.2604 113.963 29.1192 113.937 28.9818 113.883C28.8463 113.829 28.7256 113.749 28.6216 113.647C28.5176 113.545 28.4359 113.428 28.3783 113.292C28.3207 113.158 28.291 113.017 28.2892 112.873C28.2873 112.726 28.3133 112.585 28.3671 112.449C28.4229 112.314 28.5009 112.193 28.603 112.089C28.7051 111.983 28.824 111.903 28.9577 111.846C29.0932 111.788 29.2344 111.758 29.3792 111.756C29.5259 111.755 29.6671 111.781 29.8026 111.834C29.94 111.89 30.0589 111.968 30.1647 112.07C30.2687 112.172 30.3504 112.291 30.408 112.425C30.4656 112.559 30.4953 112.7 30.4971 112.847Z" fill="#2D4356"/>
<path d="M59.2112 74.0509C57.9967 71.2933 56.8918 68.2051 55.7869 64.6768C54.6838 61.1485 53.9094 57.8412 53.3579 54.8644C55.7869 55.856 57.8853 57.3992 59.3208 59.6053C62.3031 64.0157 62.1917 69.7501 59.2112 74.0509Z" fill="#E1EBF4"/>
<path d="M70.2539 86.288C69.9233 86.8395 69.5928 87.1701 69.2604 87.1701C69.0394 87.2815 68.7088 87.2815 68.4879 87.1701C67.8249 86.9509 67.0524 86.3994 66.1685 85.5173C64.4024 83.7532 62.304 80.665 60.2056 76.2546C64.512 71.1831 64.8444 63.7941 61.0895 58.2806C59.1007 55.4153 56.2298 53.3187 52.9169 52.3271C52.3653 48.1377 52.2539 44.6094 52.5863 42.2937C52.8073 41.1906 53.0283 40.3086 53.3588 39.757C53.6894 39.2055 54.0218 38.8749 54.3523 38.7654C54.4638 38.7654 54.5733 38.7654 54.6847 38.7654C55.0153 38.7654 55.4573 38.8749 56.0088 39.2055C57.3347 39.978 58.8797 41.8517 60.6476 44.6094C63.0765 48.4682 65.6169 54.0912 67.8249 61.2593C71.6912 73.6084 71.9103 83.2016 70.2539 86.288Z" fill="#03989E"/>
<path d="M62.5254 84.6365C60.869 84.306 59.2125 83.864 57.6656 83.643C57.6656 83.643 57.6656 83.5334 57.5561 83.5334C54.7947 79.2326 52.2543 73.2791 50.1559 66.553C47.9479 59.385 46.843 52.4379 46.9544 47.3664C46.9544 47.2569 46.9544 47.1454 46.9544 47.1454C48.0594 46.2634 49.1624 45.3813 50.2673 44.3896C50.0464 49.6821 51.1513 57.2903 53.6898 65.3404C56.0092 72.8371 59.2125 80.1147 62.5254 84.6365Z" fill="#03989E"/>
<path d="M19.3467 87.9433C17.8017 88.3852 16.1453 88.7158 14.4888 88.8254C10.292 89.2673 3.99674 84.636 2.67269 80.1141C1.23723 74.8217 3.11466 67.6555 8.85652 65.5589C10.292 65.0093 11.7274 64.5673 13.1629 64.1272L19.3467 87.9433Z" fill="#03989E"/>
<path d="M54.7934 83.2021C40.2159 80.9959 32.1546 83.7536 24.7563 86.2884C23.6514 86.6208 22.5483 87.0609 21.4434 87.3915L15.15 63.464C15.2596 63.464 15.2596 63.464 15.3692 63.3544C23.6514 60.7082 32.8176 57.7314 44.7451 48.7992C44.8547 53.8707 46.0691 60.4872 48.058 67.2132C49.9354 73.2782 52.253 78.9012 54.7934 83.2021Z" fill="#E1EBF4"/>
<path d="M132.98 70.1913L124.366 54.754C124.145 54.4235 123.814 54.2043 123.372 54.2043H106.366C105.924 54.2043 105.593 54.4235 105.372 54.754L96.7576 70.1913C96.5385 70.5218 96.5385 70.9638 96.7576 71.2944L105.372 86.7316C105.593 87.0622 105.924 87.2832 106.366 87.2832H123.482C123.924 87.2832 124.256 87.0622 124.477 86.7316L133.09 71.2944C133.09 70.9638 133.09 70.5218 132.98 70.1913ZM122.821 85.077H106.917L98.9674 70.7428L106.917 56.4086H122.709L130.661 70.7428L122.821 85.077Z" fill="#2D4356"/>
<path d="M99.2959 10.6474L93.775 0.723527C93.5541 0.39298 93.2235 0.171997 92.7816 0.171997H81.7379C81.296 0.171997 80.9654 0.39298 80.7444 0.723527L75.2217 10.6474C75.0026 10.9779 75.0026 11.4199 75.2217 11.7504L80.7444 21.6743C80.9654 22.0048 81.296 22.2258 81.7379 22.2258H92.7816C93.2235 22.2258 93.5541 22.0048 93.775 21.6743L99.2959 11.7504C99.4073 11.4199 99.4073 10.9779 99.2959 10.6474ZM92.1186 20.0197H82.4009L77.4316 11.1989L82.4009 2.37812H92.1186L97.0879 11.1989L92.1186 20.0197Z" fill="#2D4356"/>
<path d="M94.3273 49.2407L88.474 39.3169C88.2549 38.9845 87.9224 38.7654 87.4805 38.7654H75.9968C75.5548 38.7654 75.2224 38.9845 75.0033 39.3169L69.15 49.2407C68.929 49.5713 68.929 50.0114 69.15 50.3419L75.0033 60.2658C75.2224 60.5963 75.5548 60.8173 75.9968 60.8173H87.5919C88.0339 60.8173 88.3644 60.5963 88.5854 60.2658L94.4387 50.3419C94.4387 50.0114 94.4387 49.5713 94.3273 49.2407ZM86.9289 58.613H76.5483L71.358 49.7904L76.5483 40.9696H86.9289L92.1193 49.7904L86.9289 58.613Z" fill="#2D4356"/>
<path d="M141.262 28.2899L133.531 15.0569C133.31 14.7263 132.98 14.5072 132.538 14.5072H117.076C116.636 14.5072 116.304 14.7263 116.083 15.0569L108.352 28.2899C108.133 28.6204 108.133 29.0605 108.352 29.3929L116.083 42.6241C116.304 42.9547 116.636 43.1756 117.076 43.1756H132.538C132.98 43.1756 133.31 42.9547 133.531 42.6241L141.262 29.3929C141.371 29.0605 141.371 28.6204 141.262 28.2899ZM131.875 40.9695H117.63L110.562 28.8414L117.63 16.7115H131.875L138.942 28.8414L131.875 40.9695Z" fill="#2D4356"/>
<path d="M138.943 28.842L131.876 40.9701H117.74L110.672 28.842L117.74 16.712H131.876L138.943 28.842Z" fill="#98E07E"/>
<path d="M130.329 23.3291H119.287C117.41 23.3291 115.974 24.7627 115.974 26.6364V31.0468C115.974 32.811 117.41 34.356 119.287 34.356H130.329C132.206 34.356 133.642 32.811 133.642 31.0468V26.6364C133.642 24.7627 132.206 23.3291 130.329 23.3291ZM131.434 31.0468C131.434 31.5983 130.882 32.1499 130.329 32.1499H119.287C118.734 32.1499 118.182 31.5983 118.182 31.0468V26.6364C118.182 26.0849 118.734 25.5334 119.287 25.5334H130.329C130.882 25.5334 131.434 26.0849 131.434 26.6364V31.0468Z" fill="#2D4356"/>
<path d="M131.433 26.637V31.0474C131.433 31.5989 130.882 32.1504 130.329 32.1504H119.287C118.733 32.1504 118.182 31.5989 118.182 31.0474V26.637C118.182 26.0855 118.733 25.5339 119.287 25.5339H130.329C130.882 25.5339 131.433 26.0855 131.433 26.637Z" fill="#03989E"/>
<path d="M13.6039 66.1105L13.0524 66.3315C11.6169 66.7734 10.1796 67.3231 8.74416 67.7651C4.65875 69.3082 2.56033 73.3881 2.22979 77.5793C1.89738 72.727 3.9958 67.3231 8.85558 65.5589C10.291 65.0093 11.7265 64.5673 13.162 64.1272L13.6039 66.1105Z" fill="#F9DBD7" fill-opacity="0.298"/>
<path d="M33.151 114.959C32.5977 115.951 31.6042 116.612 30.4992 116.943C30.3897 116.943 30.1687 117.054 29.9477 117.054C29.7267 117.054 29.6172 117.054 29.3962 117.054C29.2848 117.054 29.0638 117.054 28.9542 117.054C27.1864 116.833 25.6413 115.62 25.0898 113.856L24.6478 111.981C25.3089 114.296 28.0703 115.29 30.3897 114.738C31.4946 114.408 32.3767 113.747 33.0396 112.753C33.2606 112.423 33.372 112.092 33.4816 111.762C33.8121 112.863 33.7026 114.077 33.151 114.959Z" fill="#9FA5AA" fill-opacity="0.498"/>
<path d="M59.2118 74.05C57.9973 71.2923 57.8859 73.9386 59.2118 71.8439C60.5358 69.9701 61.3102 67.8736 61.4197 65.6693C61.7503 68.5365 60.9778 71.6229 59.2118 74.05Z" fill="#9FA5AA" fill-opacity="0.498"/>
<path d="M70.2555 86.2885C69.925 86.84 69.5944 87.1706 69.262 87.1706H69.1525C69.1525 87.1706 69.1525 87.1706 69.041 87.1706H68.9315C68.8201 87.1706 68.7105 87.1706 68.7105 87.1706C68.5991 87.1706 68.4895 87.1706 68.4895 87.1706C67.8266 86.9515 67.0541 86.3999 66.1701 85.5179C64.4041 83.7537 62.3057 80.6655 60.2073 76.2551C60.4283 75.9246 60.6492 75.7036 60.8702 75.373C62.7477 79.0128 64.6251 81.7686 66.1701 83.3117C67.0541 84.1938 67.8266 84.7453 68.4895 84.9663C68.8201 85.0759 69.041 85.0759 69.262 84.9663C69.5944 84.8568 69.925 84.5244 70.2555 84.0843C70.8089 83.0908 71.1395 81.438 71.2509 79.1223C71.3604 82.5411 70.9185 84.9663 70.2555 86.2885Z" fill="#A54B3F" fill-opacity="0.498"/>
<path d="M71.251 81.3261C71.1396 76.8061 70.1461 70.6316 67.9381 63.4635C65.7282 56.2974 63.1897 50.5629 60.7589 46.8136C58.9929 44.0578 57.3364 42.1823 56.122 41.4116C55.68 41.0811 55.238 40.9696 54.7961 40.9696C54.6865 40.9696 54.5751 40.9696 54.4655 40.9696C54.1331 41.0811 53.8026 41.4116 53.4702 41.9631C53.1396 42.5128 52.9186 43.3949 52.6976 44.498C52.5881 45.1609 52.4767 45.9316 52.4767 46.8136C52.3671 45.0495 52.4767 43.5063 52.6976 42.2937C52.9186 41.1906 53.1396 40.3086 53.4702 39.757C53.8026 39.2055 54.1331 38.8749 54.4655 38.7654C54.5751 38.7654 54.5751 38.7654 54.5751 38.7654C54.5751 38.7654 54.6865 38.7654 54.7961 38.7654C55.1266 38.7654 55.5686 38.8749 56.0105 39.2055C57.3364 39.978 58.8815 41.8517 60.6493 44.6094C63.0783 48.4682 65.6187 54.0912 67.8267 61.2593C70.4766 69.6381 71.3605 76.6965 71.251 81.3261Z" fill="#A54B3F" fill-opacity="0.498"/>
<path d="M50.2649 44.3904C49.16 45.382 48.0569 46.2641 46.952 47.1461C46.952 46.4851 46.952 45.824 46.952 45.2724C46.952 45.1629 46.952 45.0514 46.952 45.0514C48.0569 44.1694 49.16 43.2873 50.2649 42.2957C50.2649 42.8472 50.2649 43.6178 50.2649 44.3904Z" fill="#17A0B0"/>
<path d="M62.526 84.6366C60.8695 84.306 59.2131 83.8641 57.6662 83.6431C57.6662 83.6431 57.6662 83.5335 57.5566 83.5335C57.1146 82.8724 56.6727 82.0999 56.2307 81.3274C57.5566 81.5484 59.876 81.9903 60.8695 82.2095C61.421 83.0915 61.9726 83.8641 62.526 84.6366Z" fill="#A54B3F" fill-opacity="0.498"/>
<path d="M54.7945 83.2018C53.4686 82.9808 38.7816 83.7533 38.451 83.7533C33.1512 84.4144 28.7333 84.8564 24.7575 86.1786C23.6526 86.5091 22.5495 86.9511 21.4446 87.2816L20.8931 85.1869L21.4446 85.0755C22.5495 84.745 23.6526 84.4144 24.7575 83.9743C31.9348 81.5472 39.7769 78.901 53.4686 80.7765C53.9106 81.6586 54.3526 82.4293 54.7945 83.2018Z" fill="#9FA5AA" fill-opacity="0.498"/>
<path d="M44.7451 48.7992C44.7451 49.4603 44.7451 50.2328 44.8547 50.8939L44.7451 51.0053C33.0385 59.8261 23.8724 62.8029 15.7016 65.4491L15.15 63.464C15.2596 63.464 15.2596 63.464 15.3692 63.3544C23.7628 60.5967 32.929 57.7314 44.7451 48.7992Z" fill="white" fill-opacity="0.498"/>
<path d="M19.3473 87.9444C17.8023 88.3864 16.1458 88.7169 14.4894 88.8265C14.2684 88.8265 14.157 88.8265 13.936 88.8265C13.8264 88.8265 13.6054 88.8265 13.494 88.8265C9.29906 88.6055 3.88774 84.3065 2.78283 80.1153C2.34086 78.5721 2.2313 76.9175 2.34086 75.2648C2.45228 76.1468 2.56184 77.0289 2.78283 77.911C3.99731 82.4309 10.2926 87.0623 14.5989 86.6222C16.0344 86.5108 17.4699 86.1802 18.9053 85.8497L19.3473 87.9444Z" fill="#A54B3F" fill-opacity="0.498"/>
<path d="M45.9592 50.3434L51.4801 46.154L51.2591 42.6257L45.9592 46.2636V50.3434Z" fill="#F9DBD7" fill-opacity="0.298"/>
<path d="M70.0345 60.7086C66.0587 47.587 59.2119 35.1265 53.8006 36.6697C52.8071 36.8906 52.0327 37.6632 51.4812 38.6548C51.1506 39.3177 50.8182 40.0884 50.5973 41.0819C35.4682 54.534 24.5361 58.0624 14.7088 61.2601C14.3764 61.3697 13.9344 61.4792 13.0523 61.8116C11.2845 62.3613 9.62802 62.9128 7.97157 63.5758C1.1248 66.1106 -1.1946 74.3817 0.573268 80.7772C2.00873 86.0697 8.63452 91.1412 13.9344 91.1412C14.2668 91.1412 14.4878 91.1412 14.7088 91.1412C15.3699 91.0316 16.0328 91.0316 16.6958 90.8106L23.1006 114.408C23.8731 117.275 26.5249 119.258 29.5054 119.258C30.0588 119.258 30.4989 119.149 31.0523 119.039C32.7087 118.597 34.1442 117.605 35.0281 116.06C35.9102 114.629 36.1312 112.863 35.6892 111.21L29.2844 87.0613C33.5908 85.7391 38.4506 84.6361 44.8554 84.6361C50.2667 84.6361 56.7811 85.4067 65.0652 87.6129C66.3892 88.8255 67.7151 89.4866 68.9296 89.4866C69.2601 89.4866 69.4811 89.4866 69.8135 89.377C70.807 89.156 71.5795 88.3854 72.1311 87.3919C73.015 85.8487 73.3474 83.312 73.3474 80.2257C73.457 75.0428 72.2425 68.0957 70.0345 60.7086ZM14.4878 88.9369C10.291 89.377 3.99573 84.7456 2.67168 80.2257C1.23622 74.8218 3.11365 67.6556 8.85551 65.5591C10.291 65.0094 11.7264 64.5674 13.1619 64.1273L19.3457 88.053C17.8007 88.3854 16.1442 88.7159 14.4878 88.9369ZM33.5908 111.761C33.9232 112.863 33.7022 113.966 33.1507 114.959C32.5973 115.951 31.6038 116.612 30.4989 116.942C28.1814 117.494 25.862 116.06 25.199 113.856L18.7942 90.3687C19.7877 90.1495 20.7812 89.819 21.8861 89.4866L26.0829 104.705C26.1925 105.145 26.6345 105.475 27.186 105.475C27.2974 105.475 27.407 105.475 27.5184 105.475C28.0699 105.366 28.4023 104.705 28.2909 104.153L24.0941 88.8255C24.5361 88.7159 25.0894 88.4949 25.5295 88.3854C26.0829 88.1644 26.6345 88.053 27.2974 87.8338L33.5908 111.761ZM24.757 86.2888C23.6521 86.6212 22.5491 87.0613 21.4441 87.3919L15.1508 63.4644C15.2603 63.4644 15.2603 63.4644 15.3699 63.3548C23.6521 60.7086 32.8183 57.7318 44.7458 48.7996C44.8554 53.8711 46.0699 60.4876 48.0587 67.2137C49.9362 73.2786 52.2537 78.9017 54.7941 83.2025C40.2166 81.1078 32.1553 83.754 24.757 86.2888ZM57.665 83.6426C57.665 83.6426 57.665 83.533 57.5554 83.533C54.7941 79.2322 52.2537 73.2786 50.1553 66.5526C47.9473 59.3845 46.8424 52.4375 46.9538 47.366C46.9538 47.2564 46.9538 47.145 46.9538 47.145C48.0587 46.2629 49.1618 45.3809 50.2667 44.3892C50.0457 49.6817 51.1506 57.2898 53.6892 65.34C56.0086 72.8367 59.2119 80.1143 62.5248 84.6361C60.8683 84.3055 59.2119 83.975 57.665 83.6426ZM53.3586 54.8646C55.7876 55.8562 57.886 57.3994 59.3215 59.6055C62.3038 64.0159 62.1924 69.8599 59.2119 74.0512C57.9974 71.2935 56.8925 68.2053 55.7876 64.677C54.6845 61.1487 53.9101 57.8414 53.3586 54.8646ZM70.2536 86.2888C69.9231 86.8403 69.5925 87.1709 69.2601 87.1709C69.0392 87.2823 68.7086 87.2823 68.4876 87.1709C67.8247 86.9518 67.0522 86.4002 66.1682 85.5182C64.4022 83.754 62.3038 80.6658 60.2054 76.2554C64.5118 71.1839 64.8442 63.7949 61.0893 58.2815C59.1005 55.4161 56.2295 53.3196 52.9166 52.3279C52.3651 48.1385 52.2537 44.6102 52.5861 42.2945C52.8071 41.1915 53.0281 40.3094 53.3586 39.7579C53.6892 39.2063 54.0216 38.8758 54.3521 38.7662C54.4635 38.7662 54.5731 38.7662 54.6845 38.7662C55.0151 38.7662 55.457 38.8758 56.0086 39.2063C57.3345 39.9788 58.8795 41.8526 60.6474 44.6102C63.0763 48.4691 65.6167 54.0921 67.8247 61.2601C71.691 73.6092 71.9101 83.2025 70.2536 86.2888Z" fill="#2D4356"/>
<path d="M130.77 70.741L122.82 85.0752H106.917L98.967 70.741L99.63 69.6379L106.917 82.871H122.82L130.107 69.6379L130.77 70.741Z" fill="#AA7371" fill-opacity="0.498"/>
<path d="M130.77 70.7407L130.107 71.8438L122.82 58.6126H106.917L99.63 71.8438L98.967 70.7407L106.917 56.4065H122.82L130.77 70.7407Z" fill="#FFDEDC" fill-opacity="0.498"/>
<path d="M138.943 28.8417L131.876 40.9698H117.74L110.672 28.8417L111.226 27.7386L117.74 38.7655H131.876L138.39 27.7386L138.943 28.8417Z" fill="#528440" fill-opacity="0.298"/>
<path d="M138.943 28.842L138.39 29.9432L131.876 18.9182H117.74L111.226 29.9432L110.672 28.842L117.74 16.712H131.876L138.943 28.842Z" fill="#CBE0C3" fill-opacity="0.6"/>
<path d="M97.0902 11.198L92.1209 20.0188H82.4032L77.4338 11.198L78.0968 10.095L82.4032 17.8145H92.1209L96.4273 10.095L97.0902 11.198Z" fill="#0F423C" fill-opacity="0.298"/>
<path d="M97.0902 11.1976L96.4273 12.3007L92.1209 4.58295H82.4032L78.0968 12.3007L77.4338 11.1976L82.4032 2.37683H92.1209L97.0902 11.1976Z" fill="#CCF0F2" fill-opacity="0.298"/>
<path d="M92.01 49.7921L86.9311 58.6147H76.5505L71.4716 49.7921L72.0231 48.6909L76.5505 56.4086H86.9311L91.4585 48.6909L92.01 49.7921Z" fill="#937D4A" fill-opacity="0.298"/>
<path d="M92.01 49.791L91.4585 50.894L86.9311 43.1763H76.5505L72.0231 50.894L71.4716 49.791L76.5505 40.9702H86.9311L92.01 49.791Z" fill="#F9EDD2" fill-opacity="0.498"/>
<path d="M87.8138 45.9321C86.3783 44.4985 83.9475 44.4985 82.6235 45.9321L81.7395 46.8142L80.8556 45.9321C79.4202 44.4985 77.1008 44.4985 75.5557 45.9321C74.1203 47.3657 74.1203 49.791 75.5557 51.2246L80.8556 56.6285C81.0766 56.8495 81.409 56.959 81.63 56.959C81.9605 56.959 82.1815 56.8495 82.4025 56.6285L87.8138 51.115C88.4749 50.4539 88.8073 49.4604 88.8073 48.4688C88.8073 47.4753 88.5863 46.5932 87.8138 45.9321ZM86.2669 49.5719L81.7395 54.3128L77.2122 49.791C76.6606 49.2413 76.6606 48.1383 77.2122 47.5867C77.5427 47.2562 77.8751 47.1448 78.3171 47.1448C78.7572 47.1448 79.0896 47.3657 79.4202 47.5867L81.0766 49.2413C81.5186 49.6814 82.1815 49.6814 82.6235 49.2413L84.2799 47.5867C84.8315 47.0352 85.825 47.0352 86.2669 47.5867C86.5993 47.9173 86.7089 48.2478 86.7089 48.6898C86.7089 49.1299 86.5993 49.3509 86.2669 49.5719Z" fill="#2D4356"/>
<path d="M86.7105 48.5773C86.7105 49.0193 86.601 49.3498 86.2686 49.6803L81.7412 54.3117L77.2138 49.7899C76.6623 49.2402 76.6623 48.1372 77.2138 47.5856C77.5444 47.2551 77.8768 47.1437 78.3187 47.1437C78.7588 47.1437 79.0913 47.3647 79.4218 47.5856L81.0782 49.2402C81.5202 49.6803 82.1832 49.6803 82.6251 49.2402L84.2816 47.5856C84.8331 47.0341 85.8266 47.0341 86.2686 47.5856C86.601 47.6952 86.7105 48.1372 86.7105 48.5773Z" fill="#03989E"/>
<path d="M86.7105 48.5794C86.7105 49.0213 86.601 49.3519 86.2686 49.6824L81.7412 54.3138L77.2138 49.792C76.6623 49.2423 76.6623 48.1393 77.2138 47.5877L81.7412 52.1077L86.2686 47.4763C86.601 47.6973 86.7105 48.1393 86.7105 48.5794Z" fill="#A54B3F" fill-opacity="0.498"/>
<path d="M116.415 77.3575H115.198L113.432 73.9388L111.003 77.3575H109.347L113.432 71.7345L116.415 77.3575Z" fill="#E5D0C3" fill-opacity="0.298"/>
<path d="M120.721 77.2479H119.616L118.843 76.0353L118.401 76.5868L117.738 75.1532L118.843 73.8311L120.721 77.2479Z" fill="#E5D0C3" fill-opacity="0.298"/>
<path d="M108.243 64.1272H121.495V66.3315H108.243V64.1272Z" fill="#CCF0F2" fill-opacity="0.298"/>
<path d="M118.734 67.3142C118.75 67.5333 118.724 67.7469 118.654 67.9549C118.585 68.1629 118.479 68.3504 118.336 68.5175C118.193 68.6828 118.022 68.8147 117.827 68.9149C117.631 69.0134 117.423 69.0709 117.204 69.0858C116.984 69.1025 116.771 69.0765 116.563 69.0078C116.353 68.9391 116.165 68.8332 116 68.6902C115.833 68.5472 115.701 68.3764 115.603 68.1814C115.502 67.9846 115.445 67.7785 115.43 67.5593C115.413 67.3402 115.439 67.1266 115.508 66.9187C115.577 66.7107 115.683 66.5231 115.827 66.3578C115.97 66.1907 116.139 66.0589 116.336 65.9604C116.533 65.862 116.741 65.8045 116.958 65.7877C117.178 65.771 117.393 65.797 117.601 65.8657C117.809 65.9344 117.996 66.0403 118.164 66.1851C118.329 66.3281 118.463 66.4971 118.561 66.6921C118.659 66.8889 118.717 67.0969 118.734 67.3142Z" fill="#2D4356"/>
<path d="M131.433 28.8424V31.0467C131.433 31.5982 130.882 32.1497 130.329 32.1497H119.287C118.733 32.1497 118.182 31.5982 118.182 31.0467V28.8424C118.182 29.3939 118.733 29.9436 119.287 29.9436H130.329C130.882 29.9436 131.433 29.3939 131.433 28.8424Z" fill="#A54B3F" fill-opacity="0.498"/>
<path d="M123.04 26.7458V30.9371L124.806 29.834L126.574 28.8424L124.806 27.8489L123.04 26.7458Z" fill="#2D4356"/>
</svg>
