<svg width="126" height="125" viewBox="0 0 126 125" fill="none" xmlns="http://www.w3.org/2000/svg">
<path d="M111.252 77.0352H79.6162V108.671C79.6162 109.587 80.3638 110.336 81.2811 110.336H111.252C112.168 110.336 112.917 109.587 112.917 108.671V78.7C112.917 77.7827 112.168 77.0352 111.252 77.0352Z" fill="#D3A06C"/>
<path d="M107.92 10.4313H77.949C77.033 10.4313 76.2842 11.1788 76.2842 12.0961V43.7321H107.92C108.837 43.7321 109.585 42.9845 109.585 42.0672V12.0961C109.585 11.1788 108.837 10.4313 107.92 10.4313Z" fill="#D3A06C"/>
<path d="M71.2902 43.7333C70.373 43.7333 69.6254 44.4821 69.6254 45.3994V62.3031L69.606 62.3161C71.7256 64.8982 72.9551 68.1955 72.9551 71.7208V77.0354H102.926V43.7333H71.2902Z" fill="#D3A06C"/>
<path d="M99.5954 10.4315V20.4219H86.2754V10.4315H99.5954Z" fill="#03989E"/>
<path d="M92.9362 43.7333V53.7236H79.6162V43.7333H92.9362Z" fill="#03989E"/>
<path d="M102.925 77.0352V87.0255H89.6052V77.0352H102.925Z" fill="#03989E"/>
<path d="M49.6429 23.7516H36.3215C32.6407 23.7516 29.6621 26.7314 29.6621 30.4122H27.9973C26.6628 30.4122 25.4476 30.946 24.5691 31.7778L23.7361 29.2812C23.2489 27.8301 23.0015 26.3013 23.0015 24.7466C23.0015 20.7859 24.6015 17.2282 27.1966 14.6267C29.7982 12.0316 33.3559 10.4315 37.3165 10.4315H48.6479C56.5562 10.4315 62.9629 16.8383 62.9629 24.7466C62.9629 26.3013 62.709 27.8301 62.2283 29.2812L61.3953 31.7778C60.5168 30.946 59.3016 30.4122 57.9671 30.4122H56.3022V28.7474H51.3077C50.2414 27.6811 49.6429 26.2301 49.6429 24.7336V23.7516Z" fill="#656D78"/>
<path d="M56.3034 100.344V110.335H29.6633V100.344H32.993C34.8211 100.344 36.3227 98.8479 36.3227 97.0146H41.3185C42.7035 97.0146 43.9525 96.4484 44.8503 95.5506C45.7482 94.6527 46.3131 93.4038 46.3131 92.0188C46.3131 89.254 44.0821 87.0242 41.3185 87.0242H29.6633V75.3677C29.6633 74.4517 30.4109 73.7029 31.3282 73.7029H36.3227V78.6987C36.3227 79.616 37.0716 80.3636 37.9889 80.3636H47.9779C48.8952 80.3636 49.6441 79.616 49.6441 78.6987V73.7029H54.6386C55.5559 73.7029 56.3034 74.4517 56.3034 75.3677V100.344Z" fill="#E6E9ED"/>
<path d="M62.9639 100.345V110.336H56.3032V100.345H62.9639Z" fill="#03989E"/>
<path d="M29.6621 100.345V110.336H23.0015V100.345H29.6621Z" fill="#03989E"/>
<path d="M13.0125 90.3551V71.7205C13.0125 64.2669 18.4889 57.9379 25.8842 56.8911L31.5628 56.0723L34.658 65.3786L42.9835 62.0489L51.309 65.3786L54.4042 56.0723L60.0828 56.8911C63.9593 57.4378 67.3278 59.4538 69.6055 62.3158C71.7251 64.8979 72.9546 68.1952 72.9546 71.7205V90.3551C72.9546 95.864 68.4731 100.345 62.9642 100.345H56.3036V75.3689C56.3036 74.4529 55.556 73.7041 54.6387 73.7041H31.3283C30.411 73.7041 29.6635 74.4529 29.6635 75.3689V87.0254H36.3229V97.0158C36.3229 98.8491 34.8213 100.345 32.9932 100.345H23.0028C17.4939 100.345 13.0125 95.864 13.0125 90.3551Z" fill="#03989E"/>
<path d="M54.4053 56.0725L51.3101 65.3788L42.9846 62.0491L49.6453 55.3884L54.4053 56.0725Z" fill="#17A0B0"/>
<path d="M42.9827 62.0491L34.6572 65.3788L31.562 56.0725L36.322 55.3884L42.9827 62.0491Z" fill="#17A0B0"/>
<path d="M49.6441 73.7029V78.6987C49.6441 79.616 48.8952 80.3636 47.978 80.3636H37.9889C37.0716 80.3636 36.3228 79.616 36.3228 78.6987V73.7029H49.6441Z" fill="#B4DD7F"/>
<path d="M41.3186 87.024C44.0821 87.024 46.3131 89.2538 46.3131 92.0186C46.3131 93.4036 45.7482 94.6525 44.8504 95.5504C43.9525 96.4482 42.7036 97.0144 41.3186 97.0144H36.3228V87.024H41.3186Z" fill="#F0D0B4"/>
<path d="M48.1283 49.3575L49.6441 55.386L42.9834 62.0466L36.3228 55.386L37.8386 49.3575C39.4192 50.0274 41.1683 50.3914 42.9834 50.3914C44.7986 50.3914 46.5476 50.0274 48.1283 49.3575Z" fill="#F0D0B4"/>
<path d="M61.3976 31.7776C62.3667 32.6948 62.9652 33.9762 62.9652 35.4078C62.9652 36.7928 62.3991 38.0418 61.5012 38.9383C60.6046 39.8362 59.3557 40.4024 57.9694 40.4024H55.8887C56.1556 39.3361 56.3046 38.2232 56.3046 37.0727V30.412H57.9694C59.3039 30.412 60.5191 30.9458 61.3976 31.7776Z" fill="#F0D0B4"/>
<path d="M30.078 40.4024H27.9973C26.611 40.4024 25.362 39.8362 24.4655 38.9383C23.5676 38.0418 23.0015 36.7928 23.0015 35.4078C23.0015 33.9762 23.6 32.6948 24.5691 31.7776C25.4476 30.9458 26.6628 30.412 27.9973 30.412H29.6621V37.0727C29.6621 38.2232 29.8111 39.3361 30.078 40.4024Z" fill="#F0D0B4"/>
<path d="M51.3089 28.746H56.3034V37.0715C56.3034 38.222 56.1544 39.3349 55.8876 40.4012C54.8407 44.4667 51.9269 47.777 48.1282 49.3576C46.5476 50.0275 44.7985 50.3915 42.9834 50.3915C41.1683 50.3915 39.4192 50.0275 37.8386 49.3576C36.2255 48.6943 34.7758 47.7122 33.5592 46.4957C31.9073 44.8308 30.6972 42.7488 30.0792 40.4012C29.8123 39.3349 29.6633 38.222 29.6633 37.0715V30.4108C29.6633 26.73 32.6419 23.7501 36.3227 23.7501H49.6441V24.7322C49.6441 26.2286 50.2426 27.6797 51.3089 28.746Z" fill="#F0D0B4"/>
<path d="M37.9875 33.7404C37.9875 32.8244 37.2386 32.0756 36.3213 32.0756C35.4054 32.0756 34.6565 32.8244 34.6565 33.7404C34.6565 34.6577 35.4054 35.4065 36.3213 35.4065C37.2386 35.4065 37.9875 34.6577 37.9875 33.7404Z" fill="black"/>
<path d="M49.6439 35.4065C50.5599 35.4065 51.3088 34.6577 51.3088 33.7404C51.3088 32.8244 50.5599 32.0756 49.6439 32.0756C48.7266 32.0756 47.9778 32.8244 47.9778 33.7404C47.9778 34.6577 48.7266 35.4065 49.6439 35.4065Z" fill="black"/>
<path d="M49.2938 41.4936L49.4687 41.1489L46.4901 39.6538L46.3139 40.0114C45.6765 41.2798 44.4016 42.0662 42.9842 42.0662C41.5668 42.0662 40.292 41.2798 39.6545 40.0114L39.4783 39.6538L36.4998 41.1489L36.6747 41.4936C37.8783 43.9008 40.2985 45.3972 42.9842 45.3972C45.67 45.3972 48.0902 43.9008 49.2938 41.4936Z" fill="black"/>
<path d="M45.826 27.5694C45.0642 26.8089 44.6483 25.8009 44.6483 24.7269V22.0864H41.3186V24.7269C41.3186 26.6923 42.0856 28.532 43.4719 29.9248L45.826 27.5694Z" fill="black"/>
<path d="M52.4852 27.5694C51.7247 26.8089 51.3088 25.8009 51.3088 24.7269V22.0864H47.9778V24.7269C47.9778 26.6923 48.7461 28.532 50.1311 29.9248L52.4852 27.5694Z" fill="black"/>
<path d="M111.25 108.669H81.279V78.6979H87.9384V88.6883H104.589V78.6979H111.25V108.669ZM97.9287 78.6979H101.26V85.3573H97.9287V78.6979ZM91.2694 78.6979H94.599V85.3573H91.2694V78.6979ZM74.6183 75.3669V71.7121C74.6183 68.0313 73.3823 64.5772 71.2886 61.78V45.3971H77.948V55.3862H94.599V45.3971H101.26V75.3669H74.6183ZM71.2886 90.3531C71.2886 94.9447 67.5547 98.6787 62.9631 98.6787H57.9673V88.6883H67.9576V85.3573H64.628V72.0372H61.2983V85.3573H57.9673V75.3669C57.9673 73.5337 56.4722 72.0372 54.6376 72.0372H31.3272C29.4926 72.0372 27.9975 73.5337 27.9975 75.3669V85.3573H24.6665V72.0372H21.3368V85.3573H18.0071V88.6883H34.6569V97.0138C34.6569 97.9298 33.9093 98.6787 32.992 98.6787H23.0016C18.41 98.6787 14.6761 94.9447 14.6761 90.3531V71.7121C14.6761 65.1239 19.5942 59.4583 26.1111 58.528L30.4164 57.9165L33.6359 67.5817L42.9824 63.8426L52.3288 67.5817L55.5484 57.9165L59.8537 58.528C66.3718 59.4583 71.2886 65.1239 71.2886 71.7121V90.3531ZM57.9673 108.669V102.008H61.2983V108.669H57.9673ZM37.9878 75.3669H47.9769V78.6979H37.9878V75.3669ZM37.6821 98.6787H41.3175C44.9918 98.6787 47.9769 95.6923 47.9769 92.018C47.9769 88.3437 44.9918 85.3573 41.3175 85.3573H31.3272V75.3669H34.6569V78.6979C34.6569 80.5312 36.1533 82.0276 37.9878 82.0276H47.9769C49.8115 82.0276 51.3079 80.5312 51.3079 78.6979V75.3669H54.6376V108.669H31.3272V102.008H32.992C35.1583 102.008 36.9915 100.61 37.6821 98.6787ZM41.3175 88.6883C43.1521 88.6883 44.6472 90.1834 44.6472 92.018C44.6472 93.8525 43.1521 95.3477 41.3175 95.3477H37.9878V88.6883H41.3175ZM24.6665 102.008H27.9975V108.669H24.6665V102.008ZM35.7374 57.1495L40.0167 61.4418L35.6778 63.1728L33.7655 57.4358L35.7374 57.1495ZM42.9824 52.0565C44.3609 52.0565 45.6876 51.8557 46.956 51.5033L47.802 54.8796L42.9824 59.6928L38.1627 54.8796L39.0088 51.5033C40.2772 51.8557 41.6039 52.0565 42.9824 52.0565ZM31.3272 37.0716V30.411C31.3272 27.6539 33.5647 25.4164 36.3217 25.4164H37.9878V22.0854H36.3217C32.3028 22.0854 28.9394 24.9474 28.1659 28.7461H27.9975C27.1061 28.7461 26.2601 28.9275 25.4801 29.2462L25.3169 28.7591C24.888 27.4648 24.6665 26.1186 24.6665 24.7531C24.6665 17.7737 30.3451 12.0951 37.3232 12.0951H48.6416C55.6196 12.0951 61.2983 17.7737 61.2983 24.7531C61.2983 26.1186 61.0767 27.4648 60.6479 28.7591L60.4846 29.2462C59.7047 28.9275 58.8586 28.7461 57.9673 28.7461V27.0813H54.6376V37.0716C54.6376 43.4978 49.4085 48.7268 42.9824 48.7268C36.5562 48.7268 31.3272 43.4978 31.3272 37.0716ZM27.9975 38.7365C26.1629 38.7365 24.6665 37.2401 24.6665 35.4068C24.6665 33.5722 26.1629 32.0758 27.9975 32.0758V37.0716C27.9975 37.6365 28.0363 38.1897 28.0946 38.7365H27.9975ZM57.9673 38.7365H57.8701C57.9284 38.1897 57.9673 37.6365 57.9673 37.0716V32.0758C59.8018 32.0758 61.2983 33.5722 61.2983 35.4068C61.2983 37.2401 59.8018 38.7365 57.9673 38.7365ZM52.1993 57.4358L50.287 63.1728L45.948 61.4418L50.2274 57.1495L52.1993 57.4358ZM87.9384 45.3971H91.2694V52.0565H87.9384V45.3971ZM81.279 45.3971H84.6087V52.0565H81.279V45.3971ZM77.948 12.0951H84.6087V22.0854H101.26V12.0951H107.919V42.0662H77.948V12.0951ZM94.599 12.0951H97.9287V18.7557H94.599V12.0951ZM87.9384 12.0951H91.2694V18.7557H87.9384V12.0951ZM111.25 75.3669H104.589V45.3971H107.919C109.754 45.3971 111.25 43.9007 111.25 42.0662V12.0951C111.25 10.2618 109.754 8.76538 107.919 8.76538H77.948C76.1147 8.76538 74.6183 10.2618 74.6183 12.0951V42.0662H71.2886C69.4541 42.0662 67.9576 43.5626 67.9576 45.3971V58.4373C65.7733 56.7855 63.1782 55.6402 60.3227 55.2307L50.9827 53.8976L50.0784 50.2686C53.3303 48.5118 55.8412 45.585 57.0902 42.0662H57.9673C61.6429 42.0662 64.628 39.0811 64.628 35.4068C64.628 33.9039 64.1149 32.5383 63.2689 31.4189L63.8091 29.8124C64.3546 28.1735 64.628 26.4762 64.628 24.7531C64.628 15.9391 57.4542 8.76538 48.6416 8.76538H37.3232C28.5105 8.76538 21.3368 15.9391 21.3368 24.7531C21.3368 26.4762 21.6167 28.1735 22.1556 29.8124L22.6894 31.4189C21.8576 32.5383 21.3368 33.9039 21.3368 35.4068C21.3368 39.0811 24.3219 42.0662 27.9975 42.0662H28.8746C30.1236 45.585 32.6344 48.5118 35.8864 50.2686L34.9821 53.8976L25.6421 55.2307C17.4928 56.3955 11.3464 63.4785 11.3464 71.7121V90.3531C11.3464 96.2131 15.6971 101.059 21.3368 101.872V111.999H64.628V101.872C70.2677 101.059 74.6183 96.2131 74.6183 90.3531V78.6979H77.948V108.669C77.948 110.502 79.4444 111.999 81.279 111.999H111.25C113.083 111.999 114.58 110.502 114.58 108.669V78.6979C114.58 76.8634 113.083 75.3669 111.25 75.3669Z" fill="black"/>
</svg>
