<svg width="149" height="115" viewBox="0 0 149 115" fill="none" xmlns="http://www.w3.org/2000/svg">
<path d="M92.9077 114.216C123.887 114.216 149 89.1024 149 58.1235C149 27.1446 123.887 2.03125 92.9077 2.03125C61.9288 2.03125 36.8154 27.1446 36.8154 58.1235C36.8154 89.1024 61.9288 114.216 92.9077 114.216Z" fill="#EDF7FD"/>
<path d="M56.5854 67.89C56.0306 66.5956 55.3526 65.3012 54.6129 64.0684L1.54104 70.2323C1.10956 71.5884 0.739723 73.0061 0.493164 74.4238L56.5854 67.89Z" fill="#9FC2F9"/>
<path d="M46.7231 55.5615L7.21199 60.1229C6.59559 60.8009 6.04083 61.5406 5.48607 62.3419C4.99296 63.0816 4.49984 63.8213 4.06836 64.5609L50.853 59.1366C49.6202 57.8422 48.2641 56.671 46.7231 55.5615Z" fill="#9FC2F9"/>
<path d="M14.7324 53.9593L38.0323 51.2472C30.204 48.9049 21.7594 49.8911 14.7324 53.9593Z" fill="#9FC2F9"/>
<path d="M58.8044 77.073C58.6811 75.7169 58.4962 74.4225 58.188 73.0664L0 79.7852C0 81.1412 0.12328 82.4973 0.308199 83.7917L58.8044 77.073Z" fill="#9FC2F9"/>
<path d="M37.6623 107.71C41.299 106.662 44.7509 104.875 47.8328 102.471L16.8896 106.046C20.4031 107.71 24.1631 108.635 27.9232 108.82L37.6623 107.71Z" fill="#9FC2F9"/>
<path d="M58.0645 86.5664C58.4343 85.2103 58.6193 83.7926 58.8042 82.4365L1.66406 89.032C2.09554 90.3264 2.6503 91.6825 3.32834 92.9153L58.0645 86.5664Z" fill="#9FC2F9"/>
<path d="M53.5037 96.4907C54.49 95.073 55.3529 93.6553 56.0926 92.1143L6.53418 97.8468C7.58206 99.1412 8.75322 100.374 10.0477 101.484L53.5037 96.4907Z" fill="#9FC2F9"/>
<path d="M138.799 21.7589C139.292 21.389 139.723 20.9575 140.093 20.5261L131.772 0C131.155 0 130.601 -9.41468e-07 129.984 0.0616389L138.799 21.7589Z" fill="#FED3CC"/>
<path d="M142.62 16.458L136.395 1.17132C136.025 0.986402 135.655 0.863119 135.285 0.73984C134.915 0.61656 134.607 0.49328 134.237 0.431641L141.696 18.5538C142.066 17.8757 142.374 17.1977 142.62 16.458Z" fill="#FED3CC"/>
<path d="M139.785 3.51367L143.422 12.5131C143.484 9.1229 142.127 5.85599 139.785 3.51367Z" fill="#FED3CC"/>
<path d="M135.409 23.6697C135.964 23.4848 136.457 23.2383 136.95 22.9917L127.827 0.493164C127.272 0.678084 126.779 0.862999 126.286 1.04792L135.409 23.6697Z" fill="#FED3CC"/>
<path d="M120.862 18.6155C121.663 19.9716 122.772 21.1427 124.067 22.0673L119.197 10.1708C118.889 11.7735 118.951 13.3761 119.321 14.9171L120.862 18.6155Z" fill="#FED3CC"/>
<path d="M131.525 24.4102C132.08 24.4102 132.696 24.3485 133.251 24.2253L124.313 2.1582C123.82 2.4664 123.389 2.83624 122.957 3.26772L131.525 24.4102Z" fill="#FED3CC"/>
<path d="M127.087 23.7303C127.765 23.9769 128.443 24.1618 129.121 24.2851L121.355 5.17676C120.923 5.73152 120.615 6.34792 120.307 6.96431L127.087 23.7303Z" fill="#FED3CC"/>
<path d="M111.77 90.6068H29.9739C26.7687 90.6068 24.1182 88.0179 24.1182 84.751V28.5355C24.1182 25.3302 26.707 22.6797 29.9739 22.6797H111.77C114.975 22.6797 117.626 25.2686 117.626 28.5355V84.751C117.626 87.9563 114.975 90.6068 111.77 90.6068Z" fill="#03989E"/>
<path d="M70.9022 39.6306C79.7193 39.6306 86.8669 32.483 86.8669 23.6659C86.8669 14.8488 79.7193 7.70117 70.9022 7.70117C62.0852 7.70117 54.9375 14.8488 54.9375 23.6659C54.9375 32.483 62.0852 39.6306 70.9022 39.6306Z" fill="#FCC06A"/>
<path d="M70.9028 36.8584C78.188 36.8584 84.0938 30.9526 84.0938 23.6675C84.0938 16.3823 78.188 10.4766 70.9028 10.4766C63.6177 10.4766 57.7119 16.3823 57.7119 23.6675C57.7119 30.9526 63.6177 36.8584 70.9028 36.8584Z" fill="#FBE2A6"/>
<path d="M75.4023 26.4395H66.4029C64.7386 26.4395 63.1976 27.1175 62.1497 28.227C60.6087 29.768 60.7936 32.3569 62.4579 33.7746C64.7386 35.6854 67.6973 36.8566 70.9026 36.8566C74.1078 36.8566 77.0665 35.6854 79.3472 33.7746C81.0115 32.3569 81.1964 29.8296 79.6554 28.227C78.6075 27.1175 77.0665 26.4395 75.4023 26.4395Z" fill="white"/>
<path d="M70.9028 25.2694C74.1709 25.2694 76.8202 22.6201 76.8202 19.352C76.8202 16.0839 74.1709 13.4346 70.9028 13.4346C67.6347 13.4346 64.9854 16.0839 64.9854 19.352C64.9854 22.6201 67.6347 25.2694 70.9028 25.2694Z" fill="white"/>
<path d="M100.92 50.3571H40.8216C39.897 50.3571 39.0957 49.6174 39.0957 48.6312C39.0957 47.7066 39.8354 46.9053 40.8216 46.9053H100.92C101.845 46.9053 102.646 47.645 102.646 48.6312C102.646 49.6174 101.845 50.3571 100.92 50.3571Z" fill="#1633E7"/>
<path d="M100.92 68.2936H40.8216C39.897 68.2936 39.0957 67.554 39.0957 66.5677C39.0957 65.6431 39.8354 64.8418 40.8216 64.8418H100.92C101.845 64.8418 102.646 65.5815 102.646 66.5677C102.646 67.554 101.845 68.2936 100.92 68.2936Z" fill="#1633E7"/>
<path d="M63.1974 59.6637H48.8353C47.9107 59.6637 47.1094 58.9241 47.1094 57.9378C47.1094 57.0132 47.8491 56.2119 48.8353 56.2119H63.1974C64.122 56.2119 64.9233 56.9516 64.9233 57.9378C64.9233 58.8624 64.122 59.6637 63.1974 59.6637Z" fill="#1633E7"/>
<path d="M92.907 59.6637H70.9632C70.0386 59.6637 69.2373 58.9241 69.2373 57.9378C69.2373 57.0132 69.977 56.2119 70.9632 56.2119H92.907C93.8316 56.2119 94.6329 56.9516 94.6329 57.9378C94.6329 58.8624 93.8316 59.6637 92.907 59.6637Z" fill="#1633E7"/>
<path d="M122.987 69.7095C122.802 68.9698 122.556 68.2917 122.186 67.6137C122.186 67.6137 122.186 67.6137 122.186 67.5521C121.076 65.2098 119.289 63.4222 117.131 62.251C116.453 61.8812 115.775 61.573 115.036 61.3881C112.2 60.4635 109.056 60.5868 106.159 62.0045C102.091 63.977 99.6872 67.9219 99.4407 72.1134L79.0379 81.9758C78.7913 82.0991 78.5448 82.3456 78.4831 82.6538L77.127 88.6945C77.0654 89.0027 77.1887 89.2493 77.4352 89.3726L83.0445 92.0847C83.2294 92.208 83.4759 92.0847 83.5376 91.8998L84.4005 89.6191C84.4622 89.4342 84.6471 89.3726 84.832 89.3726L87.1743 90.1122C87.3593 90.1739 87.5442 90.0506 87.6058 89.8657L88.4688 87.585C88.5304 87.4001 88.7153 87.3385 88.9002 87.4001L91.4275 88.2014C91.4891 88.2014 91.6124 88.2014 91.674 88.2014L103.879 82.284C107.331 84.9345 112.138 85.6125 116.392 83.5784C121.878 81.0512 124.466 75.1338 122.987 69.7095ZM121.384 69.4629C121.323 69.5245 121.2 69.5862 121.076 69.6478C120.398 69.956 119.535 69.7095 119.227 68.9698C119.165 68.7849 119.104 68.6616 119.104 68.4767C119.042 67.9219 119.35 67.3672 119.905 67.1206C120.09 66.9973 120.275 66.9973 120.521 66.9973C120.891 66.9973 121.261 67.1206 121.569 67.4288C121.693 67.5521 121.754 67.6753 121.816 67.7986C122.062 68.3534 121.878 69.0931 121.384 69.4629Z" fill="#CC5441"/>
<path d="M118.056 86.7227L107.885 82.0381L97.2214 105.215C97.0981 105.523 97.0981 105.831 97.2214 106.078L99.9952 111.564C100.118 111.81 100.427 111.933 100.673 111.872L106.776 110.392C106.96 110.331 107.084 110.146 107.022 109.899L106.282 107.619C106.221 107.434 106.282 107.249 106.467 107.187L108.748 106.263C108.933 106.201 108.995 106.016 108.933 105.831L108.132 103.489C108.07 103.304 108.132 103.119 108.317 103.057L110.782 102.071C110.844 102.009 110.967 101.948 110.967 101.886L118.056 86.7227Z" fill="#FF6D55"/>
<path d="M100.241 106.263C99.8097 106.078 99.6248 105.523 99.8097 105.091L108.747 85.6132C108.932 85.1818 109.487 84.9968 109.919 85.1818C110.35 85.3667 110.535 85.9214 110.35 86.3529L101.412 105.831C101.166 106.324 100.673 106.509 100.241 106.263Z" fill="#DD5E4A"/>
<path d="M116.33 85.7988C120.892 85.7988 124.59 82.1008 124.59 77.539C124.59 72.9773 120.892 69.2793 116.33 69.2793C111.768 69.2793 108.07 72.9773 108.07 77.539C108.07 82.1008 111.768 85.7988 116.33 85.7988Z" fill="#CCCCCC"/>
<path d="M121.323 66.6896C115.344 63.9158 108.194 66.5663 105.42 72.5454C102.646 78.5245 105.297 85.6747 111.276 88.4485C117.255 91.2223 124.405 88.5718 127.179 82.5927C129.953 76.552 127.302 69.4634 121.323 66.6896ZM119.905 69.6483C119.227 69.3401 118.919 68.4772 119.227 67.7991C119.536 67.1211 120.399 66.8129 121.077 67.1211C121.755 67.4293 122.063 68.2923 121.755 68.9703C121.446 69.71 120.645 70.0182 119.905 69.6483Z" fill="#FF6D55"/>
<path d="M116.33 85.7988C120.892 85.7988 124.59 82.1008 124.59 77.539C124.59 72.9773 120.892 69.2793 116.33 69.2793C111.768 69.2793 108.07 72.9773 108.07 77.539C108.07 82.1008 111.768 85.7988 116.33 85.7988Z" fill="#FED3CC"/>
<path d="M111.214 77.2927C110.967 77.1695 110.782 76.9229 110.844 76.6147C111.091 75.197 111.954 73.9025 113.125 73.0396C114.357 72.2383 115.775 71.9301 117.255 72.1766C118.672 72.4232 119.967 73.2861 120.768 74.4573C120.953 74.7039 120.891 75.0737 120.645 75.3203C120.398 75.5052 119.967 75.5052 119.782 75.197C119.782 75.197 119.782 75.197 119.782 75.1353C119.165 74.2107 118.179 73.5943 117.07 73.3478C115.96 73.1629 114.789 73.3478 113.864 74.0258C112.94 74.6422 112.262 75.6901 112.077 76.7996C112.015 77.1078 111.707 77.3544 111.337 77.2927C111.337 77.2927 111.275 77.2927 111.214 77.2927Z" fill="#FF6D55"/>
<path d="M118.795 75.5661L121.446 76.7989C121.631 76.8606 121.816 76.7373 121.754 76.5524L121.508 73.6553C121.508 73.4704 121.323 73.4087 121.138 73.4704L118.734 75.1347C118.672 75.2579 118.672 75.5045 118.795 75.5661Z" fill="#FF6D55"/>
<path d="M113.925 82.4687C113.062 82.0988 112.261 81.4208 111.706 80.5578C111.521 80.2496 111.645 79.8798 111.891 79.6949C112.199 79.51 112.569 79.5716 112.754 79.8798C114.11 81.7906 116.761 82.2837 118.672 80.9893C119.596 80.3729 120.274 79.325 120.459 78.2155C120.521 77.9073 120.829 77.6608 121.199 77.7224C121.507 77.784 121.754 78.0922 121.692 78.4621C121.445 79.8798 120.582 81.1742 119.411 82.0372C117.685 83.1467 115.59 83.27 113.925 82.4687Z" fill="#FF6D55"/>
<path d="M113.679 79.449L111.028 78.2162C110.843 78.1546 110.658 78.2779 110.72 78.4628L110.967 81.3599C110.967 81.5448 111.152 81.6064 111.336 81.5448L113.74 79.8805C113.864 79.7572 113.802 79.5723 113.679 79.449Z" fill="#FF6D55"/>
<path d="M126.994 53.7456C122.802 51.8348 117.809 53.684 115.898 57.8755C115.344 59.0466 115.097 60.2178 115.159 61.389C115.898 61.6355 116.576 61.9437 117.254 62.2519C117.07 61.0807 117.254 59.848 117.748 58.6768C119.227 55.4715 122.987 54.0538 126.192 55.5332C129.398 57.0125 130.815 60.7726 129.336 63.9778C128.103 66.69 125.083 68.1693 122.247 67.5529C122.001 67.4913 121.754 67.4297 121.569 67.368C121.323 67.3064 121.076 67.1831 120.891 67.1215C120.768 67.0598 120.645 66.9982 120.583 66.9365C120.398 66.9365 120.152 66.9982 119.967 67.0598C119.412 67.3064 119.165 67.8611 119.165 68.4159C119.474 68.6008 119.72 68.7241 120.028 68.909C120.46 69.0939 120.953 69.2788 121.446 69.4021C122.001 69.5254 122.494 69.6487 123.049 69.6487C126.377 69.8336 129.644 67.9844 131.123 64.7791C133.034 60.6493 131.185 55.6564 126.994 53.7456Z" fill="#595959"/>
</svg>
