<svg width="96" height="97" viewBox="0 0 96 97" fill="none" xmlns="http://www.w3.org/2000/svg">
<path d="M50.6761 23.4049C50.6761 34.4758 41.2591 43.4555 29.6461 43.4555C18.0331 43.4555 8.61609 34.4758 8.61609 23.4049C8.61609 12.3327 18.0331 3.35291 29.6461 3.35291C41.2591 3.35291 50.6761 12.3327 50.6761 23.4049Z" fill="#FFC729"/>
<path d="M45.4183 23.4041C45.4183 31.525 38.358 38.1084 29.6458 38.1084C20.9336 38.1084 13.8733 31.525 13.8733 23.4041C13.8733 15.282 20.9336 8.69983 29.6458 8.69983C38.358 8.69983 45.4183 15.282 45.4183 23.4041Z" fill="#FCD770"/>
<path d="M56.423 22.0687H84.0052C85.5303 22.0687 86.8177 23.1711 87.0131 24.6418L92.646 68.4339C92.7041 68.8869 92.7345 69.3579 92.7345 69.8121C92.7345 75.9297 87.6337 80.8859 81.3393 80.8859H71.5523V57.3588C71.5523 55.7457 70.1883 54.4187 68.5273 54.4187H40.1594L41.8205 41.5059L43.2439 30.4488V30.4373L43.9886 24.6418C44.0309 24.3312 44.1246 24.0386 44.2606 23.7743C44.2606 23.7743 44.2435 23.7627 44.2606 23.7627C44.7452 22.7463 45.8029 22.0687 46.9979 22.0687H56.423Z" fill="#03989E"/>
<path d="M68.7356 56.8228H6.33103C4.69453 56.8228 3.35889 58.1219 3.35889 59.7011V91.3722C3.35889 92.9578 4.69453 94.2519 6.33103 94.2519H68.7356C70.3669 94.2519 71.7064 92.9578 71.7064 91.3722V59.7011C71.7064 58.1219 70.3669 56.8228 68.7356 56.8228Z" fill="#E6E9ED"/>
<path d="M63.8179 59.495V72.8625H45.4166V59.495H63.8179Z" fill="#69D6F4"/>
<path d="M17.29 82.6652C17.29 85.6255 19.2281 88.0133 21.6282 88.0133H23.0742C20.9329 88.0133 19.0692 89.4397 18.0698 91.5771H12.0432C10.1353 91.5227 8.61609 89.6 8.61609 87.2479C8.61609 86.5853 8.74606 85.9102 8.99338 85.319L10.2931 82.1161C11.0893 80.139 11.507 77.9379 11.507 75.7321V73.7534C11.507 65.8791 16.6868 59.495 23.0742 59.495C26.2705 59.495 29.1626 61.1035 31.2572 63.6655C33.3355 66.2477 34.6402 69.8131 34.6402 73.7534V75.7321C34.6402 77.9379 35.0579 80.139 35.8541 82.1161L37.1538 85.319C37.4024 85.9102 37.5324 86.5853 37.5324 87.2479C37.5324 88.424 37.1538 89.4958 36.533 90.2751C35.9109 91.0622 35.0579 91.5429 34.1039 91.5771H28.0774C27.8288 91.042 27.5134 90.5411 27.1689 90.0946C26.1064 88.8144 24.6604 88.0133 23.0742 88.0133H24.519C26.9203 88.0133 28.8572 85.6255 28.8572 82.6652V73.7534C27.0048 73.7534 25.2257 72.8418 23.9272 71.2411L23.0742 70.1896L22.2212 71.2411C20.9215 72.8418 19.1436 73.7534 17.29 73.7534V82.6652Z" fill="#656D78"/>
<path d="M32.2758 90.6866V94.2518H16.5033V90.6866C16.5033 89.3846 16.8973 88.1729 17.5666 87.1214C18.9293 84.9841 21.4706 83.5577 24.3904 83.5577C26.5532 83.5577 28.525 84.3588 29.9737 85.639C30.4434 86.0854 30.8735 86.5863 31.2125 87.1214C31.8835 88.1729 32.2758 89.3846 32.2758 90.6866Z" fill="#17A0B0"/>
<path d="M32.2758 75.002V80.349C32.2758 82.1252 29.6347 83.5578 26.3605 83.5578H22.4186C19.1461 83.5578 16.5033 82.1252 16.5033 80.349V75.002C19.0308 75.002 21.4551 74.4551 23.2273 73.4947L24.3904 72.8638L25.5535 73.4947C27.324 74.4551 29.75 75.002 32.2758 75.002Z" fill="#F0D0B4"/>
<path d="M75.6484 32.7627C77.8127 32.7627 79.5916 33.9691 79.5916 35.4356C79.5916 36.9033 77.8127 38.1097 75.6484 38.1097C73.4842 38.1097 71.7053 36.9033 71.7053 35.4356C71.7053 33.9691 73.4842 32.7627 75.6484 32.7627Z" fill="#CCD1D9"/>
<path d="M57.2451 32.7627C57.9667 32.7627 58.5598 33.9691 58.5598 35.4356C58.5598 36.9033 57.9667 38.1097 57.2451 38.1097C56.5241 38.1097 55.931 36.9033 55.931 35.4356C55.931 33.9691 56.5241 32.7627 57.2451 32.7627Z" fill="#CCD1D9"/>
<path d="M46.0758 62.8372H65.7903V69.5203H46.0758V62.8372ZM42.7893 72.8625H69.0768V59.495H42.7893V72.8625Z" fill="black"/>
<path d="M45.4181 72.8638H42.7893V78.2108H45.4181V72.8638Z" fill="black"/>
<path d="M50.6764 78.2108H69.0777V72.8638H50.6764V78.2108Z" fill="black"/>
<path d="M42.7893 83.5564H69.0768V80.8829H42.7893V83.5564Z" fill="black"/>
<path d="M42.7893 94.2517H69.0768V88.9047H42.7893V94.2517Z" fill="black"/>
<path d="M77.0472 33.2608C77.0472 34.1163 76.3611 34.8121 75.5205 34.8121C74.68 34.8121 73.9939 34.1163 73.9939 33.2608C73.9939 32.4067 74.68 31.7109 75.5205 31.7109C76.3611 31.7109 77.0472 32.4067 77.0472 33.2608ZM58.7303 33.2608C58.7303 34.1163 58.0456 34.8121 57.2037 34.8121C56.3631 34.8121 55.6784 34.1163 55.6784 33.2608C55.6784 32.4067 56.3631 31.7109 57.2037 31.7109C58.0456 31.7109 58.7303 32.4067 58.7303 33.2608ZM82.3411 81.3415H73.9939V58.0768C73.9939 55.509 71.9438 53.4244 69.4154 53.4244H42.5248L46.1736 23.7611C46.2695 22.9922 46.9195 22.4048 47.6882 22.4048H55.6784V28.8927C53.9066 29.5357 52.6251 31.2439 52.6251 33.2608C52.6251 35.83 54.6766 37.9146 57.2037 37.9146C59.732 37.9146 61.7835 35.83 61.7835 33.2608C61.7835 31.2439 60.502 29.5357 58.7303 28.8927V22.4048H73.9939V28.8927C72.2235 29.5357 70.942 31.2439 70.942 33.2608C70.942 35.83 72.9921 37.9146 75.5205 37.9146C78.0489 37.9146 80.1004 35.83 80.1004 33.2608C80.1004 31.2439 78.8176 29.5357 77.0472 28.8927V22.4048H85.036C85.806 22.4048 86.4561 22.9922 86.5506 23.7611L92.2335 69.9576C92.2868 70.3758 92.3108 70.7941 92.3108 71.2124C92.3108 76.7988 87.8388 81.3415 82.3411 81.3415ZM70.942 92.199C70.942 93.0531 70.2559 93.7502 69.4154 93.7502H31.2563V92.199C31.2563 91.6656 31.2017 91.1513 31.1004 90.6477H35.3166C38.1248 90.576 40.4147 88.1949 40.4147 85.3347C40.4147 84.5104 40.2229 83.6928 39.8659 82.9537L38.4884 80.1666C37.7544 78.6708 37.3615 76.9856 37.3615 75.3084V73.5866C37.3615 65.8872 31.2017 59.6281 23.6245 59.6281C16.0459 59.6281 9.88612 65.8872 9.88612 73.5866V75.3084C9.88612 76.9856 9.49314 78.6708 8.75913 80.1666L7.38836 82.9591C7.02469 83.6928 6.83419 84.5104 6.83419 85.3347C6.83419 88.1949 9.12414 90.576 11.9669 90.6477H16.1472C16.0459 91.1513 15.9926 91.6656 15.9926 92.199V93.7502H5.30756C4.46698 93.7502 3.78093 93.0531 3.78093 92.199V58.0768C3.78093 57.2227 4.46698 56.5269 5.30756 56.5269H69.4154C70.2559 56.5269 70.942 57.2227 70.942 58.0768V92.199ZM19.0446 92.199C19.0446 89.6298 21.0961 87.5466 23.6245 87.5466C26.1515 87.5466 28.203 89.6298 28.203 92.199V93.7502H19.0446V92.199ZM22.0978 84.4441C20.4167 84.4441 19.0446 83.0512 19.0446 81.3415V74.9985C20.7497 74.6953 22.3536 73.8844 23.6245 72.6729C24.894 73.8844 26.4979 74.6953 28.203 74.9985V81.3415C28.203 83.0512 26.8322 84.4441 25.1498 84.4441H22.0978ZM35.7576 81.5541L37.1283 84.3412C37.2842 84.6498 37.3615 84.9896 37.3615 85.3347C37.3615 86.5219 36.413 87.5154 35.2807 87.5466H29.6883C29.3833 87.1283 29.0316 86.752 28.6506 86.4136C30.2239 85.286 31.2563 83.4383 31.2563 81.3415V72.0367H29.7296C28.191 72.0367 26.6884 71.4059 25.5974 70.2973L23.6245 68.2926L21.6502 70.2973C20.5592 71.4059 19.0566 72.0367 17.5179 72.0367H15.9926V81.3415C15.9926 83.4383 17.0237 85.286 18.5983 86.4136C18.216 86.752 17.8643 87.1283 17.5606 87.5466H12.0095C10.8413 87.5154 9.88612 86.5219 9.88612 85.3347C9.88612 84.9896 9.96471 84.6498 10.1139 84.3412L11.49 81.5541C12.4385 79.6279 12.9394 77.4648 12.9394 75.3084V73.5866C12.9394 67.6009 17.7337 62.7306 23.6245 62.7306C29.5152 62.7306 34.3082 67.6009 34.3082 73.5866V75.3084C34.3082 77.4648 34.8091 79.6279 35.7576 81.5541ZM31.2563 44.0573V40.9372C35.2327 40.5799 38.8574 38.8107 41.5883 36.0236L41.0408 40.477C38.1128 42.5548 34.7731 43.7853 31.2563 44.0573ZM29.7296 37.9146C22.1511 37.9146 15.9926 31.6554 15.9926 23.956C15.9926 16.2553 22.1511 9.99609 29.7296 9.99609C36.6994 9.99609 42.6207 15.4431 43.3654 22.4467C43.2642 22.7432 43.1869 23.0531 43.1443 23.3794L42.4236 29.2392C40.3015 34.5089 35.3339 37.9146 29.7296 37.9146ZM18.9913 37.0604C21.537 39.2168 24.7208 40.6164 28.203 40.9372V44.0397C23.8802 43.7 19.9451 41.9619 16.8332 39.2479L18.9913 37.0604ZM13.0166 25.5059C13.3324 29.0443 14.7098 32.2794 16.8332 34.8676L14.6738 37.0604C12.0095 33.897 10.2977 29.8984 9.96471 25.5059H13.0166ZM16.8332 13.0445C14.7098 15.6312 13.3324 18.8664 13.0166 22.4048H9.96471C10.2977 18.0123 12.0095 14.0136 14.6738 10.8502L16.8332 13.0445ZM28.203 6.97345C24.7208 7.29426 21.537 8.69391 18.9913 10.8502L16.8332 8.66413C19.9451 5.95011 23.8802 4.21071 28.203 3.87095V6.97345ZM40.4374 10.8868C37.8797 8.71827 34.7078 7.29426 31.2563 6.96668V3.86553C35.5311 4.20394 39.4836 5.95011 42.6087 8.67631L40.4374 10.8868ZM49.0123 19.3023H47.6882C47.0741 19.3023 46.4893 19.4363 45.9537 19.6596C45.321 17.2068 44.1527 14.9707 42.5968 13.0742L44.7602 10.8746C46.7757 13.2624 48.273 16.128 49.0123 19.3023ZM58.7303 11.5473C58.7303 7.2699 62.1525 3.79244 66.3621 3.79244C70.5717 3.79244 73.9939 7.2699 73.9939 11.5473V19.3023H58.7303V11.5473ZM95.2615 69.5704L89.5799 23.3794C89.2935 21.0538 87.3379 19.3023 85.036 19.3023H77.0472V11.5473C77.0472 5.56162 72.2528 0.691284 66.3621 0.691284C60.4714 0.691284 55.6784 5.56162 55.6784 11.5473V19.3023H52.1189C49.9661 8.60322 40.5812 0.691284 29.7296 0.691284C17.101 0.691284 6.83419 11.1237 6.83419 23.956C6.83419 36.787 17.101 47.2207 29.7296 47.2207C33.5515 47.2207 37.2362 46.257 40.5573 44.4269L39.4476 53.4244H5.30756C2.77916 53.4244 0.729004 55.509 0.729004 58.0768V92.199C0.729004 94.7681 2.77916 96.8527 5.30756 96.8527H69.4154C71.9438 96.8527 73.9939 94.7681 73.9939 92.199V84.4441H82.3411C89.52 84.4441 95.3641 78.5071 95.3641 71.2124C95.3641 70.6615 95.3281 70.1159 95.2615 69.5704Z" fill="black"/>
<path d="M87.4772 53.8527L86.8899 51.4758L82.2197 51.7735L82.8071 54.1493L87.4772 53.8527Z" fill="black"/>
<path d="M88.0684 56.8228L84.5899 57.202L86.5677 70.8885C86.5892 71.0418 86.6029 71.1964 86.6029 71.3497C86.6029 73.4614 84.6098 75.182 82.1653 75.182H79.5924V78.2108H82.1653C86.5479 78.2108 90.1074 75.1344 90.1074 71.3497C90.1074 71.0656 90.0875 70.7815 90.0462 70.504L88.0684 56.8228Z" fill="black"/>
</svg>
