<svg width="138" height="138" viewBox="0 0 138 138" fill="none" xmlns="http://www.w3.org/2000/svg">
<path d="M137.167 69.1038C137.167 31.4722 106.661 0.966553 69.0298 0.966553C31.3982 0.966553 0.892578 31.4722 0.892578 69.1038C0.892578 106.735 31.3982 137.241 69.0298 137.241C106.661 137.241 137.167 106.735 137.167 69.1038Z" fill="#FBF7F4"/>
<path d="M52.3741 62.167C50.2212 62.477 48.2268 60.9841 47.9192 58.8335C47.6093 56.6806 49.1021 54.6861 51.2527 54.3762C53.4033 54.0663 55.3977 55.5591 55.7077 57.7097C56.0176 59.8627 54.5247 61.8571 52.3741 62.167ZM76.9249 100.17L71.119 59.8153C70.9818 58.8572 70.4376 58.0054 69.6238 57.4779L52.315 46.2376C50.9049 45.322 49.0335 45.5917 47.9381 46.8669L34.4999 62.5314C33.8706 63.2672 33.5867 64.2372 33.7239 65.1953L39.5322 105.55C39.7948 107.386 41.4958 108.659 43.3318 108.396L58.7052 106.184L74.0811 103.97C75.917 103.707 77.1898 102.006 76.9249 100.17Z" fill="#F9A60E"/>
<path d="M71.1174 59.8153C70.9802 58.8571 70.436 58.0054 69.6221 57.4778L52.3134 46.2376C51.4877 45.7005 50.5059 45.5822 49.6116 45.8235L42.133 58.4005C41.5392 59.3989 41.4043 60.6079 41.7663 61.7128L56.3945 106.515L58.7036 106.184L74.0795 103.97C75.9154 103.707 77.1882 102.006 76.9232 100.17L71.1174 59.8153Z" fill="#03989E"/>
<path d="M66.0924 51.4507C63.4852 52.5295 60.4971 51.2875 59.4206 48.6803C58.3418 46.0731 59.5838 43.085 62.191 42.0061C64.7982 40.9297 67.7863 42.1694 68.8628 44.7766C69.9416 47.3838 68.7019 50.3742 66.0924 51.4507ZM109.147 91.4127L88.9278 42.4935C88.4475 41.3318 87.4894 40.4352 86.3017 40.0306L60.9229 31.4259C58.8551 30.7256 56.5863 31.6625 55.6186 33.6191L43.7206 57.6304C43.1623 58.7565 43.1173 60.0672 43.5976 61.2289L63.8164 110.148C64.7367 112.372 67.2848 113.43 69.5087 112.512L88.1471 104.808L106.783 97.105C109.009 96.1847 110.067 93.6366 109.147 91.4127Z" fill="#03989E"/>
<path d="M64.1421 39.5228C63.1981 39.5228 62.2707 39.7073 61.3929 40.0693C59.6138 40.8051 58.2274 42.1891 57.4892 43.9659C56.7534 45.7427 56.7511 47.6993 57.4869 49.4784C58.6035 52.185 61.2178 53.931 64.1444 53.931C65.0908 53.931 66.0158 53.7488 66.8959 53.3845C70.5654 51.8679 72.3185 47.6448 70.7996 43.9754C69.6829 41.2712 67.0687 39.5228 64.1421 39.5228ZM67.847 110.747C66.9267 110.747 66.1057 110.196 65.7556 109.347L45.5344 60.4277C45.286 59.8244 45.3097 59.143 45.5983 58.5586L57.4963 34.5473C57.882 33.7713 58.658 33.2887 59.5262 33.2887C59.7723 33.2887 60.016 33.3289 60.2526 33.4094L85.629 42.014C86.2488 42.2246 86.7456 42.6907 86.9964 43.2916L107.213 92.2109C107.445 92.7692 107.442 93.3843 107.21 93.9427C106.979 94.5034 106.546 94.9363 105.985 95.1682L68.7106 110.575C68.4338 110.688 68.1428 110.747 67.847 110.747Z" fill="#17A0B0"/>
<path d="M84.649 45.1127L63.6093 97.0508C63.3963 97.5784 63.3987 98.1675 63.614 98.6927L67.688 108.549C67.7164 108.615 67.7756 108.653 67.8466 108.653L67.9081 108.639L105.185 93.2346C105.23 93.2157 105.258 93.1873 105.277 93.1423C105.296 93.0974 105.296 93.0572 105.277 93.0122L85.4771 45.1103C85.3257 44.7388 84.7981 44.7412 84.649 45.1127Z" fill="#03989E"/>
<path d="M50.819 43.3066L52.248 40.4226C46.1653 37.2949 41.6749 33.4409 41.0716 30.8218C40.9296 30.2043 41.0219 29.7217 41.3721 29.2533C41.6252 28.9173 42.0321 28.5317 43.0589 28.5813C47.9397 28.8274 57.7061 38.0188 61.9859 45.0928C62.2888 45.5944 62.8187 45.8712 63.3652 45.8712C63.6491 45.8712 63.9354 45.7955 64.1957 45.6393C64.9575 45.178 65.2012 44.189 64.7422 43.4272C60.4221 36.2846 49.8916 25.6997 43.2174 25.3661C41.346 25.2833 39.8248 25.9505 38.7956 27.3203C37.8777 28.5459 37.5772 30.0056 37.9344 31.5458C39.1813 36.9636 48.0982 41.9107 50.8001 43.2995C50.8048 43.3018 50.8119 43.3042 50.819 43.3066Z" fill="#344461"/>
<path d="M70.8418 97.0972C70.5153 97.0972 70.1817 97.0356 69.8599 96.9055C68.5208 96.3614 67.8726 94.833 68.4191 93.4963L81.1262 62.1721C81.6704 60.8306 83.194 60.1847 84.5355 60.7289C85.8769 61.273 86.5228 62.799 85.9786 64.1381L73.2715 95.4623C72.8575 96.4797 71.878 97.0972 70.8418 97.0972Z" fill="#03989E"/>
<path d="M65.6944 72.1208C65.4317 72.1208 65.162 72.1705 64.9042 72.2817C64.4026 72.4923 64.0122 72.8874 63.8088 73.3913C63.6029 73.8976 63.6077 74.4512 63.8206 74.9528C64.0311 75.4544 64.4262 75.8424 64.9302 76.0482C65.4365 76.254 65.9901 76.2469 66.4917 76.0364C66.9932 75.8234 67.3836 75.4307 67.5871 74.9244C67.7929 74.4205 67.7882 73.8669 67.5776 73.3653C67.2464 72.5869 66.4893 72.1208 65.6944 72.1208ZM65.6991 81.4377C64.7717 81.4377 63.8466 81.2579 62.9618 80.9006C61.1613 80.1696 59.7536 78.7808 58.9966 76.9922C58.2395 75.2012 58.2253 73.2257 58.9563 71.4229C59.6874 69.6225 61.0762 68.2148 62.8648 67.4577C66.5579 65.8962 70.8378 67.6304 72.3992 71.3259C73.1563 73.1169 73.1705 75.0924 72.4395 76.8928C71.7084 78.6956 70.3196 80.1033 68.531 80.858C67.6202 81.2437 66.6596 81.4377 65.6991 81.4377Z" fill="#03989E"/>
<path d="M88.6911 81.4366C88.4214 81.4366 88.1517 81.4887 87.8962 81.5975C86.8623 82.0352 86.3749 83.2347 86.8126 84.271C87.2503 85.3072 88.4498 85.7922 89.486 85.3545C90.5199 84.9192 91.0073 83.7173 90.5696 82.6835C90.3567 82.1819 89.9616 81.7915 89.4576 81.5881C89.2092 81.4863 88.949 81.4366 88.6911 81.4366ZM88.7029 90.7511C85.8639 90.7511 83.1644 89.0832 81.9909 86.3103C80.4295 82.6149 82.1636 78.3374 85.8568 76.7759C87.6477 76.0164 89.6256 76.0046 91.4261 76.7357C93.2289 77.4667 94.6366 78.8531 95.3913 80.6441C96.9527 84.3372 95.2186 88.6147 91.5254 90.1762C90.6027 90.5666 89.6445 90.7511 88.7029 90.7511Z" fill="#03989E"/>
<path d="M70.8418 96.0518C70.5153 96.0518 70.1817 95.9903 69.8599 95.8578C68.5208 95.3137 67.8726 93.7853 68.4191 92.4486L81.1262 61.1244C81.6704 59.7853 83.194 59.1347 84.5355 59.6812C85.8769 60.2254 86.5228 61.7537 85.9786 63.0928L73.2715 94.4146C72.8575 95.432 71.878 96.0518 70.8418 96.0518Z" fill="white"/>
<path d="M65.6944 71.0712C65.4317 71.0712 65.162 71.1208 64.9042 71.232C64.4026 71.4426 64.0122 71.8377 63.8088 72.3416C63.6029 72.8479 63.6077 73.4016 63.8206 73.9055C64.0311 74.4047 64.4262 74.7951 64.9302 74.9985C65.4365 75.202 65.9901 75.1996 66.4917 74.9891C66.9932 74.7738 67.3836 74.381 67.5871 73.8771C67.7929 73.3708 67.7882 72.8172 67.5776 72.3156C67.2464 71.5396 66.4893 71.0712 65.6944 71.0712ZM65.6991 80.3904C64.7717 80.3904 63.8466 80.2105 62.9618 79.8509C61.1613 79.1222 59.7536 77.7335 58.9966 75.9425C58.2395 74.1539 58.2253 72.176 58.9563 70.3756C59.6874 68.5728 61.0762 67.1651 62.8648 66.408C66.5579 64.8489 70.8378 66.5831 72.3992 70.2762C73.1563 72.0672 73.1705 74.0427 72.4395 75.8455C71.7084 77.6459 70.3196 79.0536 68.531 79.8107C67.6202 80.1964 66.6596 80.3904 65.6991 80.3904Z" fill="white"/>
<path d="M88.6911 80.3925C88.4214 80.3925 88.1517 80.4445 87.8962 80.5534C86.8623 80.9911 86.3749 82.1882 86.8126 83.2244C87.2503 84.2607 88.4498 84.7457 89.486 84.308C90.5199 83.8727 91.0073 82.6708 90.5696 81.6369C90.3567 81.1354 89.9616 80.7474 89.4576 80.5415C89.2092 80.4398 88.949 80.3925 88.6911 80.3925ZM88.7029 89.7046C85.8639 89.7046 83.1644 88.0366 81.9909 85.2638C80.4295 81.5707 82.1636 77.2932 85.8568 75.7293C87.6477 74.9723 89.6256 74.9581 91.4261 75.6891C93.2289 76.4202 94.6366 77.809 95.3913 79.5976C96.9527 83.2931 95.2186 87.5682 91.5254 89.132C90.6027 89.5224 89.6445 89.7046 88.7029 89.7046Z" fill="white"/>
<path d="M68.065 29.7286C67.5185 29.7286 67.0737 29.2838 67.0737 28.7373V18.8385C67.0737 18.292 67.5185 17.8472 68.065 17.8472C68.6115 17.8472 69.0563 18.292 69.0563 18.8385V28.7373C69.0563 29.2838 68.6115 29.7286 68.065 29.7286Z" fill="#F8A00E"/>
<path d="M94.5738 35.3935C94.3206 35.3935 94.0651 35.2965 93.8735 35.1049C93.4878 34.7169 93.4878 34.0899 93.8735 33.7019L99.2629 28.3101C99.6509 27.9245 100.278 27.9245 100.666 28.3101C101.054 28.6981 101.054 29.3251 100.666 29.7107L95.2741 35.1049C95.0824 35.2965 94.8269 35.3935 94.5738 35.3935Z" fill="#F8A00E"/>
<path d="M112.053 61.9009H102.154C101.607 61.9009 101.162 61.4585 101.162 60.912C101.162 60.3631 101.607 59.9207 102.154 59.9207H112.053C112.601 59.9207 113.044 60.3631 113.044 60.912C113.044 61.4585 112.601 61.9009 112.053 61.9009Z" fill="#F8A00E"/>
<path d="M111.273 75.9799C111.183 75.9799 111.09 75.9634 111.003 75.9279L105.069 73.4674C104.707 73.3183 104.537 72.9043 104.686 72.5423C104.835 72.1827 105.249 72.01 105.611 72.1614L111.545 74.6196C111.907 74.7686 112.077 75.1826 111.928 75.5422C111.814 75.8167 111.552 75.9799 111.273 75.9799Z" fill="#17A0B0"/>
<path d="M80.1461 32.4495C80.0562 32.4495 79.9639 32.4329 79.8764 32.3951C79.5144 32.246 79.3441 31.8296 79.4931 31.47L81.9513 25.5388C82.1003 25.1768 82.512 25.0041 82.874 25.1555C83.236 25.3045 83.4087 25.7186 83.2572 26.0806L80.7991 32.0118C80.6879 32.2839 80.4229 32.4495 80.1461 32.4495Z" fill="#17A0B0"/>
<path d="M56.7617 28.0487C56.4825 28.0487 56.2222 27.8831 56.1063 27.611L53.809 22.0606C53.66 21.6987 53.8303 21.2846 54.1923 21.1356C54.5543 20.9865 54.9683 21.1569 55.1174 21.5189L57.4146 27.0692C57.5661 27.4312 57.3933 27.8452 57.0337 27.9943C56.9438 28.0321 56.8516 28.0487 56.7617 28.0487Z" fill="#17A0B0"/>
<path d="M97.2363 49.5375C96.9595 49.5375 96.6945 49.3719 96.5834 49.0998C96.4319 48.7378 96.6046 48.3238 96.9666 48.1747L102.898 45.7166C103.26 45.5652 103.674 45.7402 103.823 46.0998C103.972 46.4618 103.802 46.8759 103.44 47.0249L97.506 49.4831C97.4185 49.5209 97.3262 49.5375 97.2363 49.5375Z" fill="#17A0B0"/>
<path d="M39.3735 48.9783C39.1203 48.9783 38.8672 48.8836 38.6732 48.6896L33.2814 43.2978C32.8934 42.9098 32.8934 42.2828 33.2814 41.8972C33.6694 41.5092 34.2963 41.5092 34.682 41.8972L40.0738 47.289C40.4618 47.6747 40.4618 48.3016 40.0738 48.6896C39.8822 48.8836 39.6266 48.9783 39.3735 48.9783Z" fill="#F8A00E"/>
<path d="M28.7456 104.251C28.4924 104.251 28.2393 104.152 28.0453 103.96C27.6573 103.572 27.6573 102.945 28.0453 102.56L33.4371 97.168C33.8228 96.78 34.4521 96.78 34.8377 97.168C35.2234 97.5536 35.2234 98.1806 34.8377 98.5686L29.4459 103.96C29.2519 104.152 28.9987 104.251 28.7456 104.251Z" fill="#F8A00E"/>
<path d="M27.6045 72.3467H17.7057C17.1591 72.3467 16.7144 71.9043 16.7144 71.3578C16.7144 70.8112 17.1591 70.3665 17.7057 70.3665H27.6045C28.1534 70.3665 28.5958 70.8112 28.5958 71.3578C28.5958 71.9043 28.1534 72.3467 27.6045 72.3467Z" fill="#F8A00E"/>
<path d="M32.5217 59.9823C32.4318 59.9823 32.3395 59.9657 32.252 59.9279L26.3184 57.4697C25.9564 57.3207 25.7861 56.9066 25.9375 56.5447C26.0842 56.185 26.4982 56.0123 26.8602 56.1614L32.7938 58.6195C33.1534 58.7686 33.3261 59.185 33.1771 59.5446C33.0635 59.8167 32.8009 59.9823 32.5217 59.9823Z" fill="#17A0B0"/>
<path d="M23.7199 88.5182C23.443 88.5182 23.1804 88.355 23.0669 88.0829C22.9155 87.7209 23.0882 87.3046 23.4501 87.1579L29.3814 84.6997C29.7434 84.5507 30.1574 84.7234 30.3088 85.083C30.4579 85.4426 30.2852 85.859 29.9256 86.008L23.9919 88.4638C23.902 88.5017 23.8121 88.5182 23.7199 88.5182Z" fill="#17A0B0"/>
</svg>
