<svg width="144" height="135" viewBox="0 0 144 135" fill="none" xmlns="http://www.w3.org/2000/svg">
<g clip-path="url(#clip0_94_9429)">
<path fill-rule="evenodd" clip-rule="evenodd" d="M44.5548 129.617C46.5648 130.393 48.7008 130.781 50.8368 130.781C53.1528 130.781 55.4808 130.32 57.6228 129.397L68.6988 124.684C70.7988 123.789 73.1988 123.795 75.2988 124.684L86.3688 129.403C90.4908 131.164 95.2548 131.231 99.4428 129.611C103.625 127.986 106.937 124.774 108.527 120.802L112.799 110.121C113.609 108.101 115.307 106.509 117.467 105.75L128.843 101.745C133.085 100.254 136.511 97.1493 138.245 93.2287C139.979 89.3081 139.901 84.8418 138.023 80.9774L132.995 70.5937C132.047 68.6249 132.047 66.3693 132.995 64.4062L138.029 54.0281C139.907 50.1637 139.985 45.6918 138.251 41.7712C136.517 37.8506 133.091 34.7456 128.855 33.2549L117.461 29.2499C115.307 28.4906 113.609 26.8987 112.799 24.8737L108.527 14.1974C106.937 10.2206 103.625 7.00868 99.4428 5.38306C95.2608 3.75743 90.4908 3.83056 86.3748 5.59118L75.2988 10.3106C73.1928 11.1993 70.7928 11.1993 68.6988 10.3106L57.6288 5.59118C53.5068 3.83056 48.7368 3.76306 44.5548 5.38306C40.3728 7.00868 37.0608 10.2206 35.4708 14.1918L31.1988 24.8737C30.3888 26.8987 28.6908 28.4906 26.5308 29.2499L15.1428 33.2549C10.9008 34.7456 7.46881 37.8506 5.74081 41.7712C4.01281 45.6918 4.09081 50.1637 5.96881 54.0224L11.0028 64.4062C11.9508 66.3749 11.9508 68.6306 11.0028 70.5937L5.96881 80.9718C4.09081 84.8362 4.01281 89.3081 5.74681 93.2287C7.48081 97.1493 10.9068 100.254 15.1428 101.745L26.5368 105.75C28.6908 106.509 30.3888 108.101 31.1988 110.126L35.4708 120.802C37.0608 124.779 40.3728 127.991 44.5548 129.617ZM50.1366 100.62C50.8746 101.047 51.6906 101.25 52.5006 101.25C54.0006 101.25 55.4766 100.541 56.3286 99.2531L95.3286 40.1906C96.6366 38.2106 95.9886 35.6118 93.8707 34.3856C91.7707 33.1593 88.9866 33.7668 87.6786 35.7525L48.6786 94.815C47.3706 96.795 48.0186 99.3937 50.1366 100.62Z" fill="#A996FF"/>
<path d="M51 52.0313C45.21 52.0313 40.5 47.6156 40.5 42.1875C40.5 36.7594 45.21 32.3438 51 32.3438C56.79 32.3438 61.5 36.7594 61.5 42.1875C61.5 47.6156 56.79 52.0313 51 52.0313Z" fill="white"/>
<path d="M93.0029 102.189C87.4889 102.189 83.0009 97.9819 83.0009 92.8125C83.0009 87.6432 87.4889 83.4357 93.0029 83.4357C98.5169 83.4357 103.005 87.6432 103.005 92.8125C103.005 97.9819 98.5169 102.189 93.0029 102.189Z" fill="white"/>
<path d="M49.4282 134.996C47.1482 134.996 44.8683 134.58 42.7323 133.753C38.2683 132.021 34.7342 128.595 33.0423 124.354L28.4823 112.969C27.6183 110.809 25.8063 109.11 23.5083 108.3L11.3583 104.025C6.84026 102.439 3.18626 99.1257 1.33826 94.9407C-0.509741 90.7557 -0.425741 85.9913 1.57826 81.8682L6.94826 70.7982C7.96226 68.7001 7.96226 66.2982 6.94826 64.2001L1.57226 53.1301C-0.425741 49.0126 -0.515741 44.2426 1.33226 40.0633C3.18026 35.8839 6.84026 32.5652 11.3643 30.9789L23.5083 26.7039C25.8123 25.8939 27.6243 24.1952 28.4883 22.0408L33.0483 10.6502C34.7402 6.41456 38.2743 2.98894 42.7383 1.25644C47.2022 -0.476056 52.2842 -0.397306 56.6822 1.48144L68.4902 6.51581C70.7282 7.46081 73.2842 7.46081 75.5282 6.51581L87.3422 1.48144C91.7342 -0.397306 96.8222 -0.470432 101.28 1.25644C105.744 2.98894 109.278 6.41456 110.97 10.6558L115.53 22.0408C116.394 24.2008 118.206 25.8995 120.504 26.7095L132.654 30.9845C137.172 32.5708 140.826 35.8839 142.674 40.0689C144.522 44.2539 144.438 49.0183 142.434 53.1414L137.064 64.2114C136.05 66.3095 136.05 68.7114 137.064 70.8095L142.428 81.8851C144.426 86.0026 144.516 90.7726 142.668 94.952C140.82 99.1313 137.166 102.45 132.642 104.036L120.498 108.311C118.194 109.121 116.382 110.82 115.518 112.974L110.958 124.365C109.266 128.601 105.732 132.026 101.268 133.759C96.8042 135.491 91.7222 135.413 87.3242 133.534L75.5162 128.499C73.2782 127.549 70.7162 127.549 68.4782 128.499L56.6642 133.528C54.3782 134.507 51.9002 134.996 49.4282 134.996ZM49.4342 8.43956C48.3302 8.43956 47.2323 8.64206 46.1763 9.05268C43.9743 9.90206 42.3002 11.5277 41.4662 13.6146L36.9062 25.0052C35.1303 29.4377 31.3983 32.9364 26.6643 34.6014L14.5203 38.8764C12.2943 39.6583 10.5603 41.2276 9.64826 43.292C8.74226 45.3508 8.77826 47.6064 9.76226 49.637L15.1323 60.7126C17.2263 65.027 17.2263 69.9714 15.1323 74.2857L9.76226 85.3613C8.77826 87.392 8.73626 89.6532 9.64826 91.712C10.5603 93.7763 12.2883 95.3457 14.5203 96.1276L26.6703 100.403C31.4043 102.068 35.1362 105.566 36.9123 110.004L41.4723 121.389C42.3063 123.482 43.9802 125.102 46.1822 125.957C48.3782 126.806 50.7842 126.778 52.9502 125.85L64.7642 120.816C69.3662 118.853 74.6402 118.858 79.2422 120.816L91.0562 125.85C93.2282 126.778 95.6342 126.806 97.8302 125.957C100.032 125.102 101.706 123.482 102.54 121.389L107.1 109.999C108.876 105.561 112.608 102.062 117.342 100.397L129.486 96.122C131.718 95.3401 133.446 93.7707 134.358 91.7063C135.27 89.6476 135.228 87.3863 134.244 85.3613L128.874 74.2857C126.78 69.9714 126.78 65.027 128.874 60.7126L134.244 49.637C135.228 47.6064 135.27 45.3451 134.358 43.2864C133.446 41.222 131.718 39.6526 129.486 38.8708L117.336 34.5958C112.602 32.9308 108.87 29.432 107.094 24.9939L102.534 13.6089C101.7 11.5164 100.026 9.89643 97.8242 9.04143C95.6282 8.19206 93.2222 8.22581 91.0562 9.14831L79.2422 14.1827C74.6402 16.1402 69.3662 16.1402 64.7642 14.1827L52.9502 9.15393C51.8162 8.67581 50.6283 8.43956 49.4342 8.43956ZM77.3762 10.3464H77.4362H77.3762Z" fill="#A996FF"/>
</g>
<defs>
<clipPath id="clip0_94_9429">
<rect width="144" height="135" fill="white"/>
</clipPath>
</defs>
</svg>
