<svg width="123" height="123" viewBox="0 0 123 123" fill="none" xmlns="http://www.w3.org/2000/svg">
<path d="M88.9938 27.3455C91.8202 27.3455 94.1193 29.6446 94.1193 32.4698V100.754L99.0015 101.047C100.056 101.136 100.957 100.31 101.019 99.2585L105.335 27.4228C105.398 26.3759 104.593 25.4697 103.544 25.4076L79.6794 23.9767L80.1053 27.3455H88.9938Z" fill="#17A0B0"/>
<path d="M76.0043 20.6C75.9422 20.0943 75.6811 19.6431 75.2793 19.3313C74.9434 19.0689 74.5366 18.9308 74.1221 18.9308C74.0372 18.9308 73.9574 18.9384 73.8788 18.9485L21.4995 25.5582C20.9976 25.6203 20.5426 25.8801 20.2334 26.2819C19.919 26.6837 19.7847 27.1843 19.8481 27.69L28.8747 99.0859C29.004 100.126 29.9787 100.855 31.0053 100.737L31.0763 100.728V32.4708C31.0763 29.6457 33.3792 27.3465 36.2068 27.3465H76.8598L76.0043 20.6Z" fill="#FFDC69"/>
<path d="M90.897 32.4697C90.897 31.4202 90.0415 30.5647 88.9921 30.5647H36.2034C35.1502 30.5647 34.2947 31.4189 34.2947 32.4697V104.433C34.2947 105.487 35.1502 106.341 36.2034 106.341H88.9933C90.0415 106.341 90.8983 105.487 90.8983 104.433V32.4697H90.897ZM84.3203 86.8236C85.2088 86.8236 85.9312 87.5447 85.9312 88.4332C85.9312 89.3229 85.2088 90.0441 84.3203 90.0441H80.1504C79.2607 90.0441 78.5395 89.3229 78.5395 88.4332C78.5395 87.5447 79.2607 86.8236 80.1504 86.8236H84.3203ZM74.9413 90.0416H40.8752C39.9855 90.0416 39.2643 89.3204 39.2643 88.4319C39.2643 87.5435 39.9855 86.821 40.8752 86.821H74.9413C75.831 86.821 76.5522 87.5435 76.5522 88.4319C76.5522 89.3204 75.831 90.0416 74.9413 90.0416ZM40.8752 95.2013H84.3203C85.2088 95.2013 85.9312 95.9225 85.9312 96.8109C85.9312 97.7007 85.2088 98.4218 84.3203 98.4218H40.8752C39.9855 98.4218 39.2643 97.7007 39.2643 96.8109C39.2643 95.9225 39.9855 95.2013 40.8752 95.2013ZM68.3025 38.5495C68.3025 37.6598 69.0249 36.9386 69.9134 36.9386C78.0756 36.9386 84.7157 43.5736 84.7157 51.7308C84.7157 52.6193 83.9933 53.3405 83.1036 53.3405H69.9121C69.0224 53.3405 68.3012 52.6193 68.3012 51.7308V38.5495H68.3025ZM64.0997 42.779C64.9894 42.779 65.7118 43.5014 65.7118 44.3899V55.9628H77.2924C78.1821 55.9628 78.9033 56.684 78.9033 57.5724C78.9033 65.7499 72.2645 72.4027 64.1022 72.4027C55.9184 72.4027 49.2631 65.7499 49.2631 57.5724C49.2605 49.414 55.9171 42.779 64.0997 42.779ZM69.2416 78.4483C70.1314 78.4483 70.8538 79.1695 70.8538 80.0593C70.8538 80.9477 70.1314 81.6689 69.2416 81.6689H40.8752C39.9855 81.6689 39.2643 80.9477 39.2643 80.0593C39.2643 79.1695 39.9855 78.4483 40.8752 78.4483H69.2416ZM40.8549 42.7143H45.9969C46.8854 42.7143 47.6078 43.4355 47.6078 44.324C47.6078 45.2124 46.8854 45.9349 45.9969 45.9349H40.8549C39.9652 45.9349 39.244 45.2124 39.244 44.324C39.2453 43.4355 39.9652 42.7143 40.8549 42.7143Z" fill="#E9F3FF"/>
<path d="M64.0997 69.1829C69.9426 69.1829 74.788 64.8267 75.5713 59.1828H64.0997C63.2113 59.1828 62.4888 58.4604 62.4888 57.5719V46.1093C56.8424 46.8938 52.4824 51.7341 52.4824 57.5719C52.4824 63.975 57.6941 69.1829 64.0997 69.1829Z" fill="#00B3D9"/>
<path d="M81.3798 50.1203C80.6662 45.024 76.6231 40.9809 71.5229 40.2686V50.1203H81.3798Z" fill="#FFDC69"/>
<path d="M30.7598 103.968C30.8637 103.968 30.9702 103.954 31.0741 103.949V104.433C31.0741 107.261 33.3758 109.56 36.2034 109.56H88.9933C91.8209 109.56 94.1188 107.261 94.1188 104.433V103.98L98.8083 104.261C98.9135 104.269 99.0136 104.27 99.1188 104.27C101.803 104.27 104.069 102.167 104.232 99.4511L108.547 27.6154C108.721 24.7967 106.56 22.3632 103.737 22.1921L79.2683 20.7257L79.2011 20.1959C79.0275 18.8359 78.3367 17.6243 77.2543 16.7852C76.1681 15.9449 74.8082 15.5786 73.471 15.751L21.0981 22.3619C19.7394 22.5343 18.5265 23.2225 17.6887 24.3062C16.8497 25.3886 16.4821 26.732 16.652 28.0895L25.6786 99.4853C26.0031 102.071 28.2173 103.968 30.7598 103.968ZM90.897 104.432C90.897 105.485 90.0415 106.34 88.992 106.34H36.2034C35.1502 106.34 34.2946 105.485 34.2946 104.432V32.4684C34.2946 31.419 35.1502 30.5635 36.2034 30.5635H88.9933C90.0415 30.5635 90.8982 31.4177 90.8982 32.4684V104.432H90.897ZM103.542 25.4063C104.592 25.4684 105.396 26.3746 105.333 27.4215L101.017 99.2571C100.955 100.307 100.052 101.134 98.9997 101.045L94.1175 100.753V32.4684C94.1175 29.6433 91.8184 27.3442 88.992 27.3442H80.1022L79.6751 23.9754L103.542 25.4063ZM20.2312 26.2783C20.5417 25.8752 20.9942 25.618 21.4974 25.5546L73.8753 18.9437C73.9552 18.9335 74.035 18.9272 74.1187 18.9272C74.5344 18.9272 74.9412 19.0653 75.2758 19.3277C75.6789 19.6395 75.94 20.0907 76.0021 20.5964L76.8551 27.3442H36.2034C33.3758 27.3442 31.0741 29.6433 31.0741 32.4684V100.725L31.0031 100.734C29.9752 100.85 29.0031 100.124 28.8726 99.081L19.8459 27.6864C19.7825 27.182 19.9169 26.6813 20.2312 26.2783Z" fill="#03989E"/>
<path d="M64.1014 72.4021C72.2649 72.4021 78.9037 65.7494 78.9037 57.5719C78.9037 56.6834 78.1813 55.961 77.2915 55.961H65.711V44.3906C65.711 43.5021 64.9898 42.7797 64.1001 42.7797C55.9175 42.7797 49.261 49.4147 49.261 57.5719C49.2623 65.7494 55.9188 72.4021 64.1014 72.4021ZM62.4905 46.1092V57.5719C62.4905 58.4604 63.2129 59.1828 64.1014 59.1828H75.5729C74.7896 64.8267 69.9442 69.1829 64.1014 69.1829C57.6983 69.1829 52.4841 63.975 52.4841 57.5719C52.4841 51.7341 56.844 46.895 62.4905 46.1092Z" fill="#03989E"/>
<path d="M69.9138 53.3407H83.1053C83.995 53.3407 84.7175 52.6195 84.7175 51.7311C84.7175 43.5739 78.0774 36.9388 69.9151 36.9388C69.0266 36.9388 68.3042 37.66 68.3042 38.5498V51.7323C68.3042 52.6195 69.0266 53.3407 69.9138 53.3407ZM71.5247 40.2684C76.6249 40.9807 80.668 45.0238 81.3816 50.1202H71.5247V40.2684Z" fill="#03989E"/>
<path d="M40.8565 45.9315H45.9985C46.887 45.9315 47.6094 45.2103 47.6094 44.3219C47.6094 43.4321 46.887 42.7109 45.9985 42.7109H40.8565C39.9668 42.7109 39.2456 43.4321 39.2456 44.3219C39.2469 45.2116 39.9668 45.9315 40.8565 45.9315Z" fill="#03989E"/>
<path d="M40.8751 81.6679H69.2415C70.1312 81.6679 70.8537 80.9468 70.8537 80.057C70.8537 79.1686 70.1312 78.4474 69.2415 78.4474H40.8751C39.9853 78.4474 39.2642 79.1686 39.2642 80.057C39.2654 80.948 39.9853 81.6679 40.8751 81.6679Z" fill="#03989E"/>
<path d="M40.8751 90.0409H74.9412C75.8309 90.0409 76.5521 89.3197 76.5521 88.4312C76.5521 87.5427 75.8309 86.8203 74.9412 86.8203H40.8751C39.9853 86.8203 39.2642 87.5427 39.2642 88.4312C39.2642 89.3197 39.9853 90.0409 40.8751 90.0409Z" fill="#03989E"/>
<path d="M84.3202 95.2012H40.8751C39.9853 95.2012 39.2642 95.9223 39.2642 96.8108C39.2642 97.7006 39.9853 98.4217 40.8751 98.4217H84.3202C85.2086 98.4217 85.9311 97.7006 85.9311 96.8108C85.9311 95.9223 85.2086 95.2012 84.3202 95.2012Z" fill="#03989E"/>
<path d="M84.3221 86.823H80.1523C79.2626 86.823 78.5414 87.5442 78.5414 88.4326C78.5414 89.3224 79.2626 90.0436 80.1523 90.0436H84.3221C85.2106 90.0436 85.9331 89.3224 85.9331 88.4326C85.9331 87.5442 85.2106 86.823 84.3221 86.823Z" fill="#03989E"/>
</svg>
