<svg width="96" height="90" viewBox="0 0 96 90" fill="none" xmlns="http://www.w3.org/2000/svg">
<path d="M1.75879 21.3429H94.3372V88.2634H1.75879V21.3429Z" fill="#DDDDDD"/>
<path d="M44.9598 37.8301H89.1912V75.6545H44.9598V37.8301Z" fill="#E5E5E5"/>
<path d="M94.3356 48.497C94.3356 37.6243 84.3476 28.9502 72.5508 30.1875C63.4523 31.1417 56.1628 38.1704 55.3309 46.7666C54.7754 52.5108 57.0197 57.7655 60.9241 61.4645C67.6219 67.8126 71.7051 76.1942 71.7051 85.1478V85.3519C71.7051 86.9583 73.0862 88.2617 74.7913 88.2617C76.4952 88.2617 77.8775 86.9583 77.8775 85.3519V85.077C77.8775 76.3098 81.5704 67.8539 88.297 61.7983C92.0175 58.4497 94.3356 53.7328 94.3356 48.497Z" fill="#03989E"/>
<path d="M87.1348 48.4992C87.1348 48.8801 87.1148 49.2611 87.0748 49.6397C87.036 50.0195 86.976 50.3958 86.8971 50.7697C86.8183 51.1436 86.7208 51.5128 86.6032 51.8773C86.4856 52.2429 86.3492 52.6015 86.1953 52.953C86.0402 53.3056 85.8676 53.6489 85.6774 53.985C85.486 54.3212 85.2796 54.6479 85.0544 54.9652C84.8293 55.2825 84.5891 55.588 84.3326 55.8829C84.0762 56.1777 83.8047 56.4597 83.5195 56.7286C83.233 56.9987 82.934 57.2535 82.6213 57.4953C82.3098 57.7382 81.9845 57.9647 81.6492 58.1758C81.3127 58.3881 80.9662 58.5839 80.6097 58.7632C80.2531 58.9425 79.8878 59.1053 79.515 59.2515C79.141 59.3978 78.7607 59.5264 78.3741 59.6361C77.9876 59.7469 77.596 59.8401 77.1995 59.9144C76.8029 59.9887 76.4038 60.0442 76.001 60.0819C75.5982 60.1185 75.1954 60.1374 74.7913 60.1374C74.3872 60.1374 73.9832 60.1185 73.5816 60.0819C73.1788 60.0442 72.7797 59.9887 72.3831 59.9144C71.9866 59.8401 71.595 59.7469 71.2085 59.6361C70.8206 59.5264 70.4403 59.3978 70.0675 59.2515C69.6935 59.1053 69.3282 58.9425 68.9717 58.7632C68.6151 58.5839 68.2699 58.3881 67.9334 58.1758C67.5968 57.9647 67.2728 57.7382 66.9601 57.4953C66.6473 57.2535 66.3483 56.9987 66.0631 56.7286C65.7766 56.4597 65.5052 56.1777 65.2487 55.8829C64.9923 55.588 64.7521 55.2825 64.5282 54.9652C64.303 54.6479 64.0953 54.3212 63.9052 53.985C63.7138 53.6489 63.5411 53.3056 63.3872 52.953C63.2321 52.6015 63.0958 52.2429 62.9794 51.8773C62.8618 51.5128 62.763 51.1436 62.6842 50.7697C62.6054 50.3958 62.5466 50.0195 62.5066 49.6397C62.4665 49.2611 62.4478 48.8801 62.4478 48.4992C62.4478 48.1182 62.4665 47.7384 62.5066 47.3586C62.5466 46.9788 62.6054 46.6025 62.6842 46.2286C62.763 45.8547 62.8618 45.4855 62.9794 45.121C63.0958 44.7566 63.2321 44.398 63.3872 44.0453C63.5411 43.6938 63.7138 43.3494 63.9052 43.0133C64.0953 42.6771 64.303 42.3504 64.5282 42.0331C64.7521 41.717 64.9923 41.4103 65.2487 41.1154C65.5052 40.8217 65.7766 40.5387 66.0631 40.2697C66.3483 39.9996 66.6473 39.7449 66.9601 39.5031C67.2728 39.2613 67.5968 39.0336 67.9334 38.8225C68.2699 38.6102 68.6151 38.4144 68.9717 38.2351C69.3282 38.0558 69.6935 37.893 70.0675 37.7468C70.4403 37.6005 70.8206 37.4731 71.2072 37.3623C71.595 37.2514 71.9866 37.1594 72.3831 37.0851C72.7797 37.0108 73.1788 36.9541 73.5816 36.9164C73.9832 36.8798 74.3872 36.861 74.7913 36.861C75.1954 36.861 75.5982 36.8798 76.001 36.9164C76.4038 36.9541 76.8029 37.0108 77.1995 37.0851C77.596 37.1594 77.9876 37.2514 78.3741 37.3623C78.7607 37.4731 79.141 37.6005 79.515 37.7468C79.8878 37.893 80.2531 38.0558 80.6097 38.2351C80.9662 38.4144 81.3127 38.6102 81.6492 38.8225C81.9845 39.0336 82.3098 39.2613 82.6213 39.5031C82.934 39.7449 83.233 39.9996 83.5195 40.2697C83.8047 40.5387 84.0762 40.8217 84.3326 41.1154C84.5891 41.4103 84.8293 41.717 85.0544 42.0331C85.2796 42.3504 85.486 42.6771 85.6774 43.0133C85.8676 43.3494 86.0402 43.6938 86.1953 44.0453C86.3492 44.398 86.4856 44.7566 86.6032 45.121C86.7208 45.4855 86.8183 45.8547 86.8971 46.2286C86.976 46.6025 87.036 46.9788 87.0748 47.3586C87.1148 47.7384 87.1348 48.1182 87.1348 48.4992Z" fill="#DDDDDD"/>
<path d="M6.38746 26.1919C3.83168 26.1919 1.75879 24.2374 1.75879 21.8277V12.6134H11.0174V21.8277C11.0174 24.2374 8.94449 26.1919 6.38746 26.1919Z" fill="#03989E"/>
<path d="M15.645 26.1919C13.088 26.1919 11.0164 24.2374 11.0164 21.8277V12.6134H20.2737V21.8277C20.2737 24.2374 18.2008 26.1919 15.645 26.1919Z" fill="#E5E5E5"/>
<path d="M24.9026 26.1919C22.3468 26.1919 20.2739 24.2374 20.2739 21.8277V12.6134H29.5313V21.8277C29.5313 24.2374 27.4584 26.1919 24.9026 26.1919Z" fill="#03989E"/>
<path d="M34.16 26.1919C31.6043 26.1919 29.5314 24.2374 29.5314 21.8277V12.6134H38.79V21.8277C38.79 24.2374 36.7171 26.1919 34.16 26.1919Z" fill="#E5E5E5"/>
<path d="M43.4176 26.1919C40.8618 26.1919 38.7889 24.2374 38.7889 21.8277V12.6134H48.0463V21.8277C48.0463 24.2374 45.9734 26.1919 43.4176 26.1919Z" fill="#03989E"/>
<path d="M52.6752 26.1919C50.1194 26.1919 48.0465 24.2374 48.0465 21.8277V12.6134H57.3039V21.8277C57.3039 24.2374 55.231 26.1919 52.6752 26.1919Z" fill="#E5E5E5"/>
<path d="M61.934 26.1919C59.377 26.1919 57.3041 24.2374 57.3041 21.8277V12.6134H66.5627V21.8277C66.5627 24.2374 64.4898 26.1919 61.934 26.1919Z" fill="#03989E"/>
<path d="M71.1903 26.1919C68.6345 26.1919 66.5616 24.2374 66.5616 21.8277V12.6134H75.819V21.8277C75.819 24.2374 73.7461 26.1919 71.1903 26.1919Z" fill="#E5E5E5"/>
<path d="M80.4479 26.1919C77.8921 26.1919 75.8192 24.2374 75.8192 21.8277V12.6134H85.0766V21.8277C85.0766 24.2374 83.0049 26.1919 80.4479 26.1919Z" fill="#03989E"/>
<path d="M89.7066 26.1919C87.1496 26.1919 85.0767 24.2374 85.0767 21.8277V12.6134H94.3353V21.8277C94.3353 24.2374 92.2624 26.1919 89.7066 26.1919Z" fill="#E5E5E5"/>
<path d="M20.2739 0.974121H75.8205V8.73292H20.2739V0.974121Z" fill="#F2AE40"/>
<path d="M7.92957 49.4667H36.7312V88.2618H7.92957V49.4667Z" fill="#6EBAED"/>
<path d="M12.0435 53.3481H20.2725V61.1069H12.0435V53.3481Z" fill="#5E92BC"/>
<path d="M24.3878 53.3481H32.6168V61.1069H24.3878V53.3481Z" fill="#5E92BC"/>
<path d="M12.0435 64.9874H20.2725V72.7462H12.0435V64.9874Z" fill="#5E92BC"/>
<path d="M24.3878 64.9874H32.6168V72.7462H24.3878V64.9874Z" fill="#5E92BC"/>
<path d="M12.0435 76.6241H20.2725V84.3829H12.0435V76.6241Z" fill="#5E92BC"/>
<path d="M24.3878 76.6241H32.6168V84.3829H24.3878V76.6241Z" fill="#5E92BC"/>
<path d="M14.1005 37.8301H30.5598V45.5889H14.1005V37.8301Z" fill="#17A0B0"/>
<path d="M44.9598 66.9255H51.1322V75.6539H44.9598V66.9255Z" fill="#9C9B9A"/>
<path d="M51.1333 63.0468H56.2761V75.6545H51.1333V63.0468Z" fill="#17A0B0"/>
<path d="M56.277 69.8354H62.4494V75.654H56.277V69.8354Z" fill="#9C9B9A"/>
<path d="M74.7911 35.8893C67.4177 35.8893 61.418 41.545 61.418 48.497C61.418 55.449 67.4177 61.1048 74.7911 61.1048C82.1644 61.1048 88.1629 55.449 88.1629 48.497C88.1629 41.545 82.1644 35.8893 74.7911 35.8893ZM74.7911 59.1657C68.5524 59.1657 63.4759 54.3792 63.4759 48.497C63.4759 42.6148 68.5524 37.8284 74.7911 37.8284C81.0298 37.8284 86.1063 42.6148 86.1063 48.497C86.1063 54.3792 81.0298 59.1657 74.7911 59.1657Z" fill="black"/>
<path d="M78.9597 46.2518L78.5081 47.5281H69.0168L68.5652 46.2518C68.3863 45.7446 67.8071 45.4675 67.2642 45.6385C66.7263 45.8072 66.4348 46.3568 66.6149 46.8652L68.6716 52.6849C68.8129 53.08 69.2045 53.3466 69.6473 53.3466H70.6769V54.3173C70.6769 54.8528 71.136 55.2869 71.7052 55.2869C72.2744 55.2869 72.7335 54.8528 72.7335 54.3173V53.3466H74.7914V54.3173C74.7914 54.8528 75.2505 55.2869 75.8197 55.2869C76.3889 55.2869 76.8481 54.8528 76.8481 54.3173V53.3466H77.8776C78.3205 53.3466 78.712 53.08 78.8521 52.6837L80.6761 47.5281H83.0204C83.5896 47.5281 84.0488 47.094 84.0488 46.5585C84.0488 46.0218 83.5896 45.5878 83.0204 45.5878H79.9343C79.4914 45.5878 79.0986 45.8543 78.9597 46.2518ZM77.1358 51.4075H70.3892L69.7024 49.4672H77.8201L77.1358 51.4075Z" fill="black"/>
<path d="M94.3358 11.6433H67.5908V9.70421H75.8198C76.389 9.70421 76.8481 9.27015 76.8481 8.73348V0.974682C76.8481 0.439185 76.389 0.00512695 75.8198 0.00512695H20.2733C19.7041 0.00512695 19.2449 0.439185 19.2449 0.974682V8.73348C19.2449 9.27015 19.7041 9.70421 20.2733 9.70421H28.5023V11.6433H1.75732C1.18937 11.6433 0.729004 12.0774 0.729004 12.6129V88.2629C0.729004 88.7996 1.18937 89.2325 1.75732 89.2325H32.6168C33.186 89.2325 33.6451 88.7996 33.6451 88.2629C33.6451 87.7262 33.186 87.2934 32.6168 87.2934H8.95803V50.4385H35.703V88.2629C35.703 88.7996 36.1621 89.2325 36.7313 89.2325H68.6191C69.1883 89.2325 69.6474 88.7996 69.6474 88.2629C69.6474 87.7262 69.1883 87.2934 68.6191 87.2934H37.7596V49.4677C37.7596 48.9323 37.3005 48.4982 36.7313 48.4982H7.92972C7.36051 48.4982 6.9014 48.9323 6.9014 49.4677V87.2934H2.78689V25.9378C3.76516 26.7021 5.01991 27.1609 6.38599 27.1609C8.30001 27.1609 9.99135 26.2586 11.0159 24.8845C12.0405 26.2586 13.7306 27.1609 15.6446 27.1609C17.5574 27.1609 19.2487 26.2586 20.2733 24.8845C21.2978 26.2586 22.9892 27.1609 24.9019 27.1609C26.8159 27.1609 28.506 26.2586 29.5306 24.8845C30.5552 26.2586 32.2465 27.1609 34.1593 27.1609C36.0733 27.1609 37.7646 26.2586 38.7892 24.8845C39.8138 26.2586 41.5038 27.1609 43.4179 27.1609C45.3306 27.1609 47.022 26.2586 48.0465 24.8845C49.0711 26.2586 50.7624 27.1609 52.6752 27.1609C54.5892 27.1609 56.2793 26.2586 57.3039 24.8845C58.3284 26.2586 60.0198 27.1609 61.9338 27.1609C63.8466 27.1609 65.5379 26.2586 66.5625 24.8845C67.587 26.2586 69.2771 27.1609 71.1911 27.1609C73.1039 27.1609 74.7953 26.2586 75.8198 24.8845C76.8444 26.2586 78.5357 27.1609 80.4485 27.1609C82.3625 27.1609 84.0526 26.2586 85.0772 24.8845C86.1017 26.2586 87.7931 27.1609 89.7071 27.1609C91.0732 27.1609 92.3279 26.7021 93.3062 25.9378V40.0635C92.149 37.8024 90.5315 35.7477 88.5061 34.0386C84.0876 30.3102 78.3806 28.6046 72.4371 29.2227C66.6826 29.8266 61.6561 32.7046 58.3447 36.8588H44.9603C44.3924 36.8588 43.932 37.2929 43.932 37.8284V75.654C43.932 76.1895 44.3924 76.6235 44.9603 76.6235H69.3772C70.2266 79.3966 70.677 82.2569 70.677 85.149V85.3531C70.677 87.4927 72.5222 89.2325 74.7915 89.2325H94.3358C94.9037 89.2325 95.3641 88.7996 95.3641 88.2629V12.6129C95.3641 12.0774 94.9037 11.6433 94.3358 11.6433ZM9.98635 21.8272C9.98635 23.6991 8.37132 25.2218 6.38599 25.2218C4.40067 25.2218 2.78689 23.6991 2.78689 21.8272V13.5836H9.98635V21.8272ZM19.2449 21.8272C19.2449 23.6991 17.6299 25.2218 15.6446 25.2218C13.6593 25.2218 12.0442 23.6991 12.0442 21.8272V13.5836H19.2449V21.8272ZM28.5023 21.8272C28.5023 23.6991 26.8873 25.2218 24.9019 25.2218C22.9166 25.2218 21.3016 23.6991 21.3016 21.8272V13.5836H28.5023V21.8272ZM37.7596 21.8272C37.7596 23.6991 36.1446 25.2218 34.1593 25.2218C32.1752 25.2218 30.5602 23.6991 30.5602 21.8272V13.5836H37.7596V21.8272ZM47.0182 21.8272C47.0182 23.6991 45.4032 25.2218 43.4179 25.2218C41.4325 25.2218 39.8175 23.6991 39.8175 21.8272V13.5836H47.0182V21.8272ZM56.2756 21.8272C56.2756 23.6991 54.6605 25.2218 52.6752 25.2218C50.6899 25.2218 49.0749 23.6991 49.0749 21.8272V13.5836H56.2756V21.8272ZM65.5329 21.8272C65.5329 23.6991 63.9179 25.2218 61.9338 25.2218C59.9485 25.2218 58.3334 23.6991 58.3334 21.8272V13.5836H65.5329V21.8272ZM66.5625 7.76392C65.9933 7.76392 65.5329 8.19798 65.5329 8.73348V11.6433H30.5602V9.70421H62.448C63.0159 9.70421 63.4763 9.27015 63.4763 8.73348C63.4763 8.19798 63.0159 7.76392 62.448 7.76392H21.3016V1.94542H74.7915V7.76392H66.5625ZM74.7915 21.8272C74.7915 23.6991 73.1765 25.2218 71.1911 25.2218C69.2058 25.2218 67.5908 23.6991 67.5908 21.8272V13.5836H74.7915V21.8272ZM84.0488 21.8272C84.0488 23.6991 82.4338 25.2218 80.4485 25.2218C78.4632 25.2218 76.8481 23.6991 76.8481 21.8272V13.5836H84.0488V21.8272ZM50.1044 74.6844H45.9887V67.8952H50.1044V74.6844ZM55.2472 69.8355V74.6844H52.1611V64.0158H55.2472V69.8355ZM61.4184 74.6844H57.3039V70.805H61.4184V74.6844ZM63.4763 74.6844V69.8355C63.4763 69.2988 63.0159 68.8659 62.448 68.8659H57.3039V63.0462C57.3039 62.5096 56.8448 62.0767 56.2756 62.0767H51.1327C50.5635 62.0767 50.1044 62.5096 50.1044 63.0462V65.9561H45.9887V38.7991H56.9624C55.515 41.1617 54.5805 43.8356 54.3053 46.6806C53.7498 52.4377 55.8965 58.077 60.1949 62.1498C64.0868 65.8393 66.9665 70.115 68.7129 74.6844H63.4763ZM93.3062 87.2934H78.3343C78.6883 86.7201 78.906 86.0631 78.906 85.3531V85.0782C78.906 82.1943 79.3326 79.3517 80.1307 76.6247H89.1917C89.7609 76.6247 90.2212 76.1907 90.2212 75.654V61.2958C91.4735 59.9618 92.5005 58.491 93.3062 56.9211V87.2934ZM80.77 74.6844C82.3337 70.4276 84.8457 66.5258 88.1646 63.3022V74.6844H80.77ZM87.5867 61.0977C83.2832 64.9724 80.1407 69.8803 78.4031 75.2577C78.3869 75.2931 78.3818 75.332 78.3693 75.3697C77.3761 78.486 76.8481 81.7579 76.8481 85.0782V85.3531C76.8481 86.4229 75.9262 87.2934 74.7915 87.2934C73.6569 87.2934 72.7336 86.4229 72.7336 85.3531V85.149C72.7336 76.2083 68.798 67.5555 61.6536 60.7828C57.7843 57.1169 55.854 52.0403 56.3556 46.8575C56.6534 43.7825 57.8055 40.9328 59.5857 38.5219C59.6057 38.5042 59.6182 38.4806 59.6357 38.4606C62.6018 34.4821 67.2855 31.7162 72.6661 31.1524C73.3879 31.0769 74.106 31.0391 74.819 31.0391C79.3851 31.0391 83.6961 32.5831 87.1363 35.4847C91.0569 38.7944 93.3062 43.5384 93.3062 48.4982C93.3062 53.3035 91.2758 57.7786 87.5867 61.0977ZM93.3062 21.3424V21.8272C93.3062 23.6991 91.6924 25.2218 89.7071 25.2218C87.7218 25.2218 86.1067 23.6991 86.1067 21.8272V13.5836H93.3062V21.3424Z" fill="black"/>
<path d="M21.302 53.346C21.302 52.8105 20.8429 52.3765 20.2737 52.3765H12.0447C11.4755 52.3765 11.0164 52.8105 11.0164 53.346V61.1048C11.0164 61.6415 11.4755 62.0755 12.0447 62.0755H20.2737C20.8429 62.0755 21.302 61.6415 21.302 61.1048V53.346ZM19.2454 60.1353H13.073V54.3168H19.2454V60.1353Z" fill="black"/>
<path d="M32.6153 52.3765H24.3862C23.817 52.3765 23.3579 52.8105 23.3579 53.346V61.1048C23.3579 61.6415 23.817 62.0755 24.3862 62.0755H32.6153C33.1845 62.0755 33.6436 61.6415 33.6436 61.1048V53.346C33.6436 52.8105 33.1845 52.3765 32.6153 52.3765ZM31.5869 60.1353H25.4145V54.3168H31.5869V60.1353Z" fill="black"/>
<path d="M21.302 64.9865C21.302 64.4498 20.8429 64.0157 20.2737 64.0157H12.0447C11.4755 64.0157 11.0164 64.4498 11.0164 64.9865V72.7453C11.0164 73.2808 11.4755 73.7148 12.0447 73.7148H20.2737C20.8429 73.7148 21.302 73.2808 21.302 72.7453V64.9865ZM19.2454 71.7745H13.073V65.956H19.2454V71.7745Z" fill="black"/>
<path d="M32.6179 64.0157H24.3889C23.8197 64.0157 23.3606 64.4498 23.3606 64.9865V72.7453C23.3606 73.2808 23.8197 73.7148 24.3889 73.7148H32.6179C33.1871 73.7148 33.6463 73.2808 33.6463 72.7453V64.9865C33.6463 64.4498 33.1871 64.0157 32.6179 64.0157ZM31.5896 71.7745H25.4172V65.956H31.5896V71.7745Z" fill="black"/>
<path d="M20.2737 75.655H12.0447C11.4755 75.655 11.0164 76.0891 11.0164 76.6258V84.3846C11.0164 84.9201 11.4755 85.3541 12.0447 85.3541H20.2737C20.8429 85.3541 21.302 84.9201 21.302 84.3846V76.6258C21.302 76.0891 20.8429 75.655 20.2737 75.655ZM19.2454 83.4138H13.073V77.5953H19.2454V83.4138Z" fill="black"/>
<path d="M32.6153 75.655H24.3862C23.817 75.655 23.3579 76.0891 23.3579 76.6258V84.3846C23.3579 84.9201 23.817 85.3541 24.3862 85.3541H32.6153C33.1845 85.3541 33.6436 84.9201 33.6436 84.3846V76.6258C33.6436 76.0891 33.1845 75.655 32.6153 75.655ZM31.5869 83.4138H25.4145V77.5953H31.5869V83.4138Z" fill="black"/>
<path d="M27.9 36.8599L23.0587 32.2952C22.6558 31.9154 22.0066 31.9154 21.6038 32.2952L16.7624 36.8599H14.1016C13.5336 36.8599 13.0732 37.294 13.0732 37.8295V45.5883C13.0732 46.1249 13.5336 46.559 14.1016 46.559H30.5609C31.1288 46.559 31.5892 46.1249 31.5892 45.5883V37.8295C31.5892 37.294 31.1288 36.8599 30.5609 36.8599H27.9ZM22.3306 34.3523L24.9914 36.8599H19.671L22.3306 34.3523ZM29.5313 44.6187H15.1311V38.799H29.5313V44.6187Z" fill="black"/>
<path d="M19.245 41.7094C19.245 41.838 19.2187 41.9618 19.1662 42.081C19.1137 42.2001 19.0399 42.3051 18.9435 42.3959C18.8472 42.4867 18.7359 42.5563 18.6095 42.6058C18.4832 42.6554 18.3518 42.6802 18.2154 42.6802C18.0791 42.6802 17.949 42.6554 17.8226 42.6058C17.6963 42.5563 17.5849 42.4867 17.4886 42.3959C17.3923 42.3051 17.3172 42.2001 17.2659 42.081C17.2134 41.9618 17.1871 41.838 17.1871 41.7094C17.1871 41.5809 17.2134 41.457 17.2659 41.3391C17.3172 41.2199 17.3923 41.115 17.4886 41.0241C17.5849 40.9333 17.6963 40.8625 17.8226 40.8142C17.949 40.7646 18.0791 40.7399 18.2154 40.7399C18.3518 40.7399 18.4832 40.7646 18.6095 40.8142C18.7359 40.8625 18.8472 40.9333 18.9435 41.0241C19.0399 41.115 19.1137 41.2199 19.1662 41.3391C19.2187 41.457 19.245 41.5809 19.245 41.7094Z" fill="black"/>
<path d="M23.3589 41.7094C23.3589 41.838 23.3326 41.9618 23.2801 42.081C23.2276 42.2001 23.1537 42.3051 23.0574 42.3959C22.9611 42.4867 22.8498 42.5563 22.7234 42.6058C22.5971 42.6554 22.4669 42.6802 22.3293 42.6802C22.193 42.6802 22.0629 42.6554 21.9365 42.6058C21.8102 42.5563 21.6988 42.4867 21.6025 42.3959C21.5062 42.3051 21.4324 42.2001 21.3798 42.081C21.3273 41.9618 21.301 41.838 21.301 41.7094C21.301 41.5809 21.3273 41.457 21.3798 41.3391C21.4324 41.2199 21.5062 41.115 21.6025 41.0241C21.6988 40.9333 21.8102 40.8625 21.9365 40.8142C22.0629 40.7646 22.193 40.7399 22.3293 40.7399C22.4669 40.7399 22.5971 40.7646 22.7234 40.8142C22.8498 40.8625 22.9611 40.9333 23.0574 41.0241C23.1537 41.115 23.2276 41.2199 23.2801 41.3391C23.3326 41.457 23.3589 41.5809 23.3589 41.7094Z" fill="black"/>
<path d="M27.4755 41.7094C27.4755 41.838 27.4492 41.9618 27.3967 42.081C27.3441 42.2001 27.2703 42.3051 27.174 42.3959C27.0777 42.4867 26.9663 42.5563 26.84 42.6058C26.7136 42.6554 26.5835 42.6802 26.4472 42.6802C26.3096 42.6802 26.1795 42.6554 26.0531 42.6058C25.9268 42.5563 25.8154 42.4867 25.7191 42.3959C25.6228 42.3051 25.549 42.2001 25.4964 42.081C25.4439 41.9618 25.4176 41.838 25.4176 41.7094C25.4176 41.5809 25.4439 41.457 25.4964 41.3391C25.549 41.2199 25.6228 41.115 25.7191 41.0241C25.8154 40.9333 25.9268 40.8625 26.0531 40.8142C26.1795 40.7646 26.3096 40.7399 26.4472 40.7399C26.5835 40.7399 26.7136 40.7646 26.84 40.8142C26.9663 40.8625 27.0777 40.9333 27.174 41.0241C27.2703 41.115 27.3441 41.2199 27.3967 41.3391C27.4492 41.457 27.4755 41.5809 27.4755 41.7094Z" fill="black"/>
</svg>
