<svg width="123" height="123" viewBox="0 0 123 123" fill="none" xmlns="http://www.w3.org/2000/svg">
<path d="M84.9761 100.808V111.587H59.8175V84.6392L61.3993 83.0574C63.8429 80.6138 67.1496 79.2488 70.5996 79.2488C74.0495 79.2488 77.3563 80.6138 79.7999 83.0574L81.3816 84.6392L82.8012 71.847V71.8292C84.3652 72.2069 85.8557 72.7456 87.2397 73.4287C94.5186 76.9851 99.3526 84.4415 99.3526 92.8129V100.808H84.9761Z" fill="#17A0B0"/>
<path d="M58.399 71.847L59.6208 82.842H45.1189C45.0289 82.5365 44.9034 82.2678 44.7589 81.9979C46.8793 78.3324 50.0783 75.3147 53.9782 73.4287C55.38 72.7456 56.8528 72.2069 58.399 71.8292V71.847Z" fill="#17A0B0"/>
<path d="M82.642 71.7932C82.6952 71.811 82.7497 71.811 82.8029 71.8287V71.8465L81.3834 84.6387L79.8016 83.0569C77.358 80.6133 74.0513 79.2483 70.6013 79.2483L75.993 70.266L82.642 71.7932Z" fill="#03989E"/>
<path d="M65.2096 70.266L70.6013 79.2483C67.1513 79.2483 63.8446 80.6133 61.4009 83.0569L59.8192 84.6387V82.8415H59.6215L58.3997 71.8465V71.8287C58.4529 71.811 58.5074 71.811 58.5606 71.7932L65.2096 70.266Z" fill="#03989E"/>
<path d="M97.2518 53.1644C97.4495 53.7753 97.5573 54.4394 97.5573 55.0858C97.5573 56.3976 97.1251 57.6371 96.4065 58.6612C95.6701 59.6676 94.6282 60.4585 93.3874 60.8716L92.1656 61.2848C92.3633 61.8767 92.4533 62.4876 92.4533 63.0808C92.4533 65.4699 90.9616 67.6803 88.5712 68.4699C88.5712 68.4699 88.5712 69.1708 88.4102 70.1416C88.248 71.0935 87.9248 72.3153 87.2594 73.3749L87.2416 73.4294C85.8576 72.7462 84.3671 72.2076 82.8031 71.8299C82.7499 71.8121 82.6954 71.8121 82.6421 71.7944L75.9932 70.2671V66.063C75.9932 65.3444 76.4241 64.698 77.0882 64.4103C84.0426 61.428 88.5712 54.5826 88.5712 47.0021V46.9121H90.3684C91.8602 46.9121 93.2074 46.3012 94.1783 45.3304C95.1492 44.3608 95.7601 43.0135 95.7601 41.5217V48.7081L97.2518 53.1644Z" fill="#03989E"/>
<path d="M65.2087 70.2671L58.5597 71.7944C58.5065 71.8121 58.452 71.8121 58.3987 71.8299C56.8525 72.2076 55.3797 72.7462 53.9779 73.4294C52.6306 71.309 52.6306 68.4699 52.6306 68.4699C50.2403 67.6803 48.7485 65.4699 48.7485 63.0808C48.7485 62.4876 48.8385 61.8767 49.0362 61.2848L47.8144 60.8716C45.334 60.044 43.6445 57.7094 43.6445 55.0858C43.6445 54.4394 43.7523 53.7753 43.95 53.1644L45.4418 48.7081V41.5217C45.4418 44.504 47.8499 46.9121 50.8334 46.9121H52.6306V47.0021C52.6306 50.793 53.7625 54.4039 55.7574 57.4394C57.7701 60.4585 60.6446 62.9185 64.1136 64.4103C64.7777 64.698 65.2087 65.3444 65.2087 66.063V70.2671Z" fill="#03989E"/>
<path d="M61.652 35.2336L52.6316 36.1322H50.8344C49.3426 36.1322 47.9941 36.7431 47.0245 37.7127C46.0537 38.6835 45.4427 40.0308 45.4427 41.5213V32.539C45.4427 18.6517 56.7102 7.38806 70.6013 7.38806C77.538 7.38806 83.827 10.2081 88.3923 14.7531C92.9386 19.3171 95.7599 25.6049 95.7599 32.539V41.5213C95.7599 38.539 93.3517 36.1322 90.3682 36.1322H88.571L79.5507 35.2336C74.4644 34.7304 70.6013 30.4554 70.6013 25.3527C70.6013 30.4554 66.7382 34.7304 61.652 35.2336Z" fill="#03989E"/>
<path d="M84.9761 100.809H99.3526V111.588H84.9761V100.809Z" fill="#F0D0B4"/>
<path d="M90.367 36.1324C93.3506 36.1324 95.7587 38.5393 95.7587 41.5216C95.7587 43.0133 95.1478 44.3606 94.177 45.3302C93.2061 46.3011 91.8588 46.912 90.367 46.912H88.5698V36.1324H90.367Z" fill="#F0D0B4"/>
<path d="M52.6316 36.1324V46.912H50.8344C47.8509 46.912 45.4427 44.5038 45.4427 41.5216C45.4427 40.0311 46.0537 38.6838 47.0245 37.7129C47.9941 36.7433 49.3426 36.1324 50.8344 36.1324H52.6316Z" fill="#F0D0B4"/>
<path d="M88.5695 46.9131V47.003C88.5695 54.5836 84.0409 61.429 77.0865 64.4112C76.4224 64.6989 75.9915 65.3453 75.9915 66.064V70.2681L70.5998 79.2504L65.2081 70.2681V66.064C65.2081 65.3453 64.7772 64.6989 64.1131 64.4112C60.6441 62.9195 57.7696 60.4594 55.7569 57.4404C53.7619 54.4049 52.6301 50.7939 52.6301 47.003V36.1335L61.6505 35.2349C66.7367 34.7317 70.5998 30.4567 70.5998 25.354C70.5998 30.4567 74.4629 34.7317 79.5491 35.2349L88.5695 36.1335V46.9131Z" fill="#F0D0B4"/>
<path d="M9.50049 82.8427H59.8176V115.18H9.50049V82.8427Z" fill="#E6E9ED"/>
<path d="M45.442 84.6394V86.4354C45.442 88.4113 43.8248 90.0285 41.8476 90.0285H27.4724C25.4952 90.0285 23.8779 88.4113 23.8779 86.4354V84.6394C23.8779 84.0095 23.9857 83.3999 24.2011 82.8422C24.9198 80.7408 26.9147 79.249 29.2696 79.249H40.0516C42.0643 79.249 43.8248 80.3631 44.7589 81.9981C44.9034 82.268 45.0289 82.5367 45.1188 82.8422C45.3343 83.3999 45.442 84.0095 45.442 84.6394Z" fill="#F0D0B4"/>
<path d="M32.8635 95.4193H36.458V109.792H32.8635V95.4193Z" fill="black"/>
<path d="M45.4413 95.4193H40.0509V109.792H43.6441V106.199H45.4413C48.4134 106.199 50.833 103.781 50.833 100.81C50.833 97.8376 48.4134 95.4193 45.4413 95.4193ZM45.4413 102.606H43.6441V99.0125H45.4413C46.4312 99.0125 47.2385 99.8173 47.2385 100.81C47.2385 101.801 46.4312 102.606 45.4413 102.606Z" fill="black"/>
<path d="M23.8779 101.455L22.011 94.9255L18.5547 95.9116L22.1491 108.487C22.3697 109.26 23.0769 109.791 23.8779 109.791C24.6789 109.791 25.3862 109.26 25.6054 108.487L29.1986 95.9116L25.7436 94.9255L23.8779 101.455Z" fill="black"/>
<path d="M63.4119 41.5221C63.4119 41.6413 63.4005 41.7579 63.3765 41.8732C63.3536 41.9886 63.3194 42.1014 63.2751 42.2104C63.2294 42.3194 63.1737 42.4233 63.109 42.5209C63.0431 42.6185 62.9683 42.7097 62.8847 42.7934C62.801 42.877 62.7111 42.9505 62.6122 43.0164C62.5146 43.0824 62.4107 43.1369 62.3017 43.1825C62.1927 43.2281 62.0811 43.2623 61.9645 43.2851C61.8492 43.308 61.7326 43.3194 61.6147 43.3194C61.4969 43.3194 61.379 43.308 61.2636 43.2851C61.1483 43.2623 61.0355 43.2281 60.9265 43.1825C60.8175 43.1369 60.7136 43.0824 60.616 43.0164C60.5184 42.9505 60.4271 42.877 60.3435 42.7934C60.2598 42.7097 60.1863 42.6185 60.1204 42.5209C60.0545 42.4233 59.9987 42.3194 59.9544 42.2104C59.9088 42.1014 59.8745 41.9886 59.8517 41.8732C59.8289 41.7579 59.8175 41.6413 59.8175 41.5221C59.8175 41.4043 59.8289 41.2877 59.8517 41.1723C59.8745 41.057 59.9088 40.9442 59.9544 40.8352C59.9987 40.7262 60.0545 40.6223 60.1204 40.5247C60.1863 40.4271 60.2598 40.3358 60.3435 40.2522C60.4271 40.1685 60.5184 40.095 60.616 40.0291C60.7136 39.9632 60.8175 39.9074 60.9265 39.8631C61.0355 39.8175 61.1483 39.7832 61.2636 39.7604C61.379 39.7376 61.4969 39.7262 61.6147 39.7262C61.7326 39.7262 61.8492 39.7376 61.9645 39.7604C62.0811 39.7832 62.1927 39.8175 62.3017 39.8631C62.4107 39.9074 62.5146 39.9632 62.6122 40.0291C62.7111 40.095 62.801 40.1685 62.8847 40.2522C62.9683 40.3358 63.0431 40.4271 63.109 40.5247C63.1737 40.6223 63.2294 40.7262 63.2751 40.8352C63.3194 40.9442 63.3536 41.057 63.3765 41.1723C63.4005 41.2877 63.4119 41.4043 63.4119 41.5221Z" fill="black"/>
<path d="M81.3831 41.5221C81.3831 41.6413 81.3717 41.7579 81.3489 41.8732C81.3261 41.9886 81.2919 42.1014 81.2463 42.2104C81.2006 42.3194 81.1461 42.4233 81.0802 42.5209C81.0143 42.6185 80.9408 42.7097 80.8572 42.7934C80.7735 42.877 80.6822 42.9505 80.5847 43.0164C80.4858 43.0824 80.3831 43.1369 80.2741 43.1825C80.1651 43.2281 80.0523 43.2623 79.937 43.2851C79.8204 43.308 79.7038 43.3194 79.5859 43.3194C79.468 43.3194 79.3514 43.308 79.2361 43.2851C79.1195 43.2623 79.008 43.2281 78.899 43.1825C78.79 43.1369 78.686 43.0824 78.5872 43.0164C78.4896 42.9505 78.3983 42.877 78.3159 42.7934C78.2323 42.7097 78.1575 42.6185 78.0916 42.5209C78.027 42.4233 77.9712 42.3194 77.9256 42.2104C77.8812 42.1014 77.847 41.9886 77.8242 41.8732C77.8001 41.7579 77.7887 41.6413 77.7887 41.5221C77.7887 41.4043 77.8001 41.2877 77.8242 41.1723C77.847 41.057 77.8812 40.9442 77.9256 40.8352C77.9712 40.7262 78.027 40.6223 78.0916 40.5247C78.1575 40.4271 78.2323 40.3358 78.3159 40.2522C78.3983 40.1685 78.4896 40.095 78.5872 40.0291C78.686 39.9632 78.79 39.9074 78.899 39.8631C79.008 39.8175 79.1195 39.7832 79.2361 39.7604C79.3514 39.7376 79.468 39.7262 79.5859 39.7262C79.7038 39.7262 79.8204 39.7376 79.937 39.7604C80.0523 39.7832 80.1651 39.8175 80.2741 39.8631C80.3831 39.9074 80.4858 39.9632 80.5847 40.0291C80.6822 40.095 80.7735 40.1685 80.8572 40.2522C80.9408 40.3358 81.0143 40.4271 81.0802 40.5247C81.1461 40.6223 81.2006 40.7262 81.2463 40.8352C81.2919 40.9442 81.3261 41.057 81.3489 41.1723C81.3717 41.2877 81.3831 41.4043 81.3831 41.5221Z" fill="black"/>
<path d="M71.5949 51.12C72.4543 50.6903 73.0943 49.954 73.3972 49.0427C73.7014 48.1314 73.6304 47.1567 73.2033 46.2987L72.3985 44.6916V41.5217H68.804V45.1149C68.804 45.3937 68.8687 45.67 68.9929 45.9185L69.9866 47.9033L68.0005 48.8969L69.6089 52.1111L71.5949 51.12Z" fill="black"/>
<path d="M78.3839 56.7932L75.2749 54.9934C74.3091 56.6576 72.5195 57.6905 70.6006 57.6905C68.6817 57.6905 66.8921 56.6576 65.9288 54.9934L62.8198 56.7932C64.4219 59.5625 67.4041 61.2837 70.6006 61.2837C73.7971 61.2837 76.7793 59.5625 78.3839 56.7932Z" fill="black"/>
<path d="M101.15 92.8097C101.15 84.2862 96.6192 76.7399 89.5799 72.6499C89.988 71.5498 90.2009 70.4699 90.2909 69.6829C92.9272 68.2836 94.4671 65.4281 94.2327 62.4851C97.3074 61.3292 99.3543 58.3951 99.3543 55.0896C99.3543 54.2392 99.2175 53.4001 98.9475 52.5915L97.5571 48.4166V41.5332C97.5571 41.5293 97.5571 41.5268 97.5571 41.523C97.5571 41.5205 97.5571 41.5179 97.5571 41.5141V32.5432C97.5571 25.3442 94.7536 18.5787 89.6623 13.4861C84.571 8.39736 77.8016 5.59253 70.6014 5.59253C63.4011 5.59253 56.6317 8.39736 51.5404 13.4861C46.4491 18.5787 43.6456 25.3442 43.6456 32.5432V48.4166L42.2552 52.5915C41.9852 53.3989 41.8484 54.2392 41.8484 55.0896C41.8484 58.3951 43.8953 61.3305 46.9726 62.4851C46.7368 65.4281 48.278 68.2836 50.913 69.6829C51.003 70.4725 51.2185 71.5549 51.6279 72.6575C48.8623 74.2786 46.4352 76.456 44.5315 79.0644C43.297 78.072 41.7533 77.4548 40.0524 77.4548H29.2703C26.6214 77.4548 24.3273 78.9098 23.0802 81.0479H7.70496V116.978H61.6165V113.385H101.15V92.8097ZM92.8131 59.1758L91.5964 59.5827C90.6547 59.8945 90.1452 60.9122 90.4608 61.8552C91.1376 63.8869 90.0349 66.0897 88.0019 66.769C87.2719 67.0111 86.7776 67.6993 86.7725 68.4661C86.7725 68.4826 86.7561 69.7614 86.334 71.0834C85.2744 70.6702 84.1794 70.3128 83.0399 70.0491L77.789 68.8387V66.0631C84.9005 63.0162 89.6636 56.3203 90.2909 48.7094H90.3682C91.6838 48.7094 92.9006 48.3291 93.9627 47.7106V48.7081C93.9627 48.9007 93.9931 49.0921 94.0539 49.2759L95.5381 53.7297C95.6839 54.1695 95.7599 54.6257 95.7599 55.0896C95.7599 56.9451 94.5749 58.589 92.8131 59.1758ZM61.2033 80.816L60.358 73.2329L64.3402 72.3141L67.6051 77.7564C65.2591 78.2342 63.0703 79.2773 61.2033 80.816ZM67.0069 69.7703V66.0631C67.0069 64.6258 66.1539 63.3305 64.8295 62.7601C58.5113 60.0529 54.4302 53.8653 54.4302 46.9958V37.76L61.8408 37.0198C65.5747 36.6459 68.7382 34.5711 70.6014 31.6066C72.4645 34.5711 75.628 36.6447 79.3619 37.0198L86.7725 37.76V46.9958C86.7725 53.8653 82.6914 60.0554 76.372 62.7601C75.0488 63.3305 74.1958 64.6258 74.1958 66.0631V69.7703L70.6014 75.7589L67.0069 69.7703ZM50.8357 45.1162C48.8535 45.1162 47.2413 43.5053 47.2413 41.523C47.2413 39.542 48.8535 37.9311 50.8357 37.9311V45.1162ZM93.9627 41.5332C93.9576 43.5091 92.3492 45.1162 90.3682 45.1162H90.367V37.9311H90.3682C92.3467 37.9311 93.9576 39.5382 93.9627 41.5141V41.5332ZM73.595 77.7539L76.8599 72.3128L80.8447 73.2329L80.0019 80.816C78.1324 79.2773 75.9436 78.2342 73.595 77.7539ZM54.0816 16.0273C58.4948 11.6166 64.3605 9.1857 70.6014 9.1857C76.8422 9.1857 82.7079 11.6166 87.1211 16.0273C91.533 20.4392 93.9627 26.3037 93.9627 32.5432V35.3367C92.9006 34.7182 91.6838 34.3379 90.3682 34.3379V34.2606C90.3682 30.3328 88.4164 26.6864 85.1464 24.5052L84.1756 23.8601L82.1844 26.8499L83.154 27.4938C85.3517 28.9602 86.6787 31.3835 86.7599 34.0109L86.3822 33.9476C82.4443 33.2923 79.5862 29.9197 79.5862 25.9298V25.3544H75.993V25.9298C75.993 28.6763 76.9525 31.2048 78.552 33.2163C74.9765 32.3252 72.3986 29.144 72.3986 25.3544H68.8041C68.8041 29.144 66.2262 32.3252 62.6507 33.2163C64.2502 31.2048 65.2097 28.6763 65.2097 25.9298V25.3544H61.6165V25.9298C61.6165 29.9197 58.7585 33.2923 54.8218 33.9476L54.4441 34.0109C54.5252 31.3835 55.8535 28.9602 58.0487 27.4938L59.0195 26.8499L57.0284 23.8601L56.0563 24.5052C52.785 26.6864 50.8345 30.3328 50.8345 34.2606V34.3379C49.5189 34.3379 48.3009 34.7182 47.24 35.3379V32.5432C47.24 26.3037 49.6697 20.4392 54.0816 16.0273ZM54.4276 68.4712C54.4276 67.6968 53.9333 67.0111 53.1995 66.769C51.1665 66.0897 50.0626 63.8869 50.7407 61.8552C51.055 60.9135 50.5467 59.8945 49.605 59.5827L48.3883 59.1758C46.6266 58.589 45.4428 56.9451 45.4428 55.0896C45.4428 54.6257 45.5188 54.1695 45.6646 53.7297L47.1488 49.2759C47.2096 49.0921 47.24 48.9007 47.24 48.7081V47.7094C48.3021 48.3291 49.5189 48.7094 50.8345 48.7094H50.9118C51.5379 56.3216 56.3022 63.0162 63.4137 66.0631V68.8387L58.1628 70.0504C57.0322 70.3115 55.9409 70.6829 54.8738 71.1049C54.4441 69.7754 54.4276 68.4839 54.4276 68.4712ZM56.8484 74.1772L57.6127 81.0479H47.5417C49.8889 77.8895 53.1399 75.489 56.8484 74.1772ZM25.6759 84.6411C25.6759 82.6588 27.2881 81.0479 29.2703 81.0479H40.0524C42.0334 81.0479 43.6456 82.6588 43.6456 84.6411V86.4371C43.6456 87.4282 42.8395 88.2343 41.8484 88.2343H40.0524V84.6411H36.458V88.2343H32.8635V84.6411H29.2703V88.2343H27.4731C26.482 88.2343 25.6759 87.4282 25.6759 86.4371V84.6411ZM11.2994 113.385V84.6411H22.0815V86.4371C22.0815 89.4092 24.501 91.8262 27.4731 91.8262H41.8484C44.8218 91.8262 47.24 89.4092 47.24 86.4371V84.6411H58.0119L58.0221 84.74V113.385H11.2994ZM61.6165 85.3838L62.6698 84.3319C64.7876 82.214 67.6039 81.0479 70.6014 81.0479C73.5988 81.0479 76.4151 82.214 78.5329 84.3319L82.756 88.5549L84.3543 74.181C92.2225 76.9338 97.5571 84.2989 97.5571 92.8097V99.0125H86.7751L86.7725 91.8237H83.1781L83.1806 109.792H61.6165V85.3838ZM86.7751 109.792L86.7725 102.606H97.5546V109.792H86.7751Z" fill="black"/>
</svg>
